<svg width="715" height="715" viewBox="0 0 715 715" fill="none" xmlns="http://www.w3.org/2000/svg">
<path d="M357.5 611.411C510.628 611.411 634.763 604.163 634.763 595.223C634.763 586.283 510.628 579.036 357.5 579.036C204.372 579.036 80.2373 586.283 80.2373 595.223C80.2373 604.163 204.372 611.411 357.5 611.411Z" fill="#F5F5F5"/>
<path d="M475.432 559.459C475.432 559.459 468.282 544.015 476.433 528.771C484.584 513.527 486.872 509.952 481.724 506.835C476.576 503.718 474.188 519.09 474.188 519.09C471.627 512.175 471.361 504.618 473.43 497.54C477.019 486.515 479.279 468.568 474.374 466.638C469.469 464.707 473.444 489.031 469.183 497.325C467.014 491.507 465.615 485.431 465.022 479.25C464.435 470.399 465.351 456.256 461.475 452.638C457.6 449.02 455.126 451.508 458.93 471.056C461.216 482.726 462.479 494.574 462.705 506.463C462.705 506.463 454.311 480.838 448.662 480.094C443.014 479.35 443.028 487.644 447.862 494.837C452.695 502.03 462.004 514.929 463.52 521.564C463.52 521.564 454.297 502.288 446.003 508.193C437.709 514.099 453.224 525.754 460.145 529.958C467.067 534.162 471.871 560.546 471.871 560.546L475.432 559.459Z" fill="black"/>
<path opacity="0.2" d="M475.432 559.459C475.432 559.459 468.282 544.015 476.433 528.771C484.584 513.527 486.872 509.952 481.724 506.835C476.576 503.718 474.188 519.09 474.188 519.09C471.627 512.175 471.361 504.618 473.43 497.54C477.019 486.515 479.279 468.568 474.374 466.638C469.469 464.707 473.444 489.031 469.183 497.325C467.014 491.507 465.615 485.431 465.022 479.25C464.435 470.399 465.351 456.256 461.475 452.638C457.6 449.02 455.126 451.508 458.93 471.056C461.216 482.726 462.479 494.574 462.705 506.463C462.705 506.463 454.311 480.838 448.662 480.094C443.014 479.35 443.028 487.644 447.862 494.837C452.695 502.03 462.004 514.929 463.52 521.564C463.52 521.564 454.297 502.288 446.003 508.193C437.709 514.099 453.224 525.754 460.145 529.958C467.067 534.162 471.871 560.546 471.871 560.546L475.432 559.459Z" fill="black"/>
<path d="M469.841 565.794C469.841 565.794 476.733 550.235 468.411 535.135C460.088 520.034 457.743 516.459 462.862 513.27C467.982 510.081 470.527 525.339 470.527 525.339C473.007 518.392 473.183 510.83 471.028 503.775C467.31 492.821 464.836 474.903 469.726 472.901C474.617 470.899 470.928 495.28 475.275 503.503C477.379 497.653 478.706 491.552 479.222 485.356C479.708 476.505 478.621 462.376 482.453 458.701C486.286 455.026 488.788 457.486 485.213 477.077C483.064 488.777 481.944 500.644 481.867 512.541C481.867 512.541 489.961 486.801 495.595 485.971C501.229 485.142 501.315 493.436 496.567 500.7C491.82 507.965 482.682 521.006 481.224 527.656C481.224 527.656 490.218 508.236 498.584 514.028C506.949 519.819 491.577 531.688 484.713 536.007C477.849 540.325 473.359 566.766 473.359 566.766L469.841 565.794Z" fill="black"/>
<path d="M501.644 554.711H444.673L449.292 595.481H497.039L501.644 554.711Z" fill="#263238"/>
<path opacity="0.2" d="M613.541 149.292H312.441C310.482 149.292 308.894 150.88 308.894 152.838V420.277C308.894 422.236 310.482 423.823 312.441 423.823H613.541C615.5 423.823 617.088 422.236 617.088 420.277V152.838C617.088 150.88 615.5 149.292 613.541 149.292Z" fill="black"/>
<path d="M601.887 144.216H300.786C298.828 144.216 297.24 145.803 297.24 147.762V415.2C297.24 417.159 298.828 418.747 300.786 418.747H601.887C603.846 418.747 605.433 417.159 605.433 415.2V147.762C605.433 145.803 603.846 144.216 601.887 144.216Z" fill="black"/>
<path opacity="0.6" d="M297.24 168.74V415.215C297.166 416.061 297.423 416.902 297.956 417.563C298.489 418.224 299.257 418.654 300.1 418.761H602.488C603.345 418.674 604.135 418.254 604.686 417.59C605.237 416.927 605.505 416.074 605.433 415.215V168.74H297.24Z" fill="white"/>
<path d="M601.773 183.197H300.886V400.943H601.773V183.197Z" fill="white"/>
<path opacity="0.6" d="M595.366 161.175C597.862 161.175 599.885 158.736 599.885 155.727C599.885 152.718 597.862 150.279 595.366 150.279C592.871 150.279 590.847 152.718 590.847 155.727C590.847 158.736 592.871 161.175 595.366 161.175Z" fill="white"/>
<path opacity="0.6" d="M580.566 161.175C583.061 161.175 585.085 158.736 585.085 155.727C585.085 152.718 583.061 150.279 580.566 150.279C578.07 150.279 576.047 152.718 576.047 155.727C576.047 158.736 578.07 161.175 580.566 161.175Z" fill="white"/>
<path opacity="0.6" d="M570.27 155.727C570.27 158.73 568.253 161.161 565.751 161.161C563.248 161.161 561.246 158.73 561.246 155.727C561.246 152.724 563.263 150.279 565.751 150.279C568.239 150.279 570.27 152.71 570.27 155.727Z" fill="white"/>
<path d="M364.993 208.623V264.779L350.55 282.196H318.561V208.623H364.993Z" fill="black"/>
<path opacity="0.7" d="M364.993 208.623V264.779L350.55 282.196H318.561V208.623H364.993Z" fill="white"/>
<path opacity="0.3" d="M364.993 264.779L350.55 282.196V264.779H364.993Z" fill="black"/>
<path opacity="0.3" d="M357.8 219.233H325.768V221.335H357.8V219.233Z" fill="black"/>
<path opacity="0.3" d="M357.8 227.213H325.768V229.315H357.8V227.213Z" fill="black"/>
<path opacity="0.3" d="M357.8 235.206H325.768V237.323H357.8V235.206Z" fill="black"/>
<path opacity="0.3" d="M357.8 243.2H325.768V245.302H357.8V243.2Z" fill="black"/>
<path opacity="0.3" d="M349.521 251.194H325.768V253.31H349.521V251.194Z" fill="black"/>
<path d="M438.638 208.623V264.779L424.195 282.196H392.206V208.623H438.638Z" fill="black"/>
<path opacity="0.7" d="M438.638 208.623V264.779L424.195 282.196H392.206V208.623H438.638Z" fill="white"/>
<path opacity="0.3" d="M438.638 264.779L424.195 282.196V264.779H438.638Z" fill="black"/>
<path opacity="0.3" d="M431.431 219.233H399.399V221.335H431.431V219.233Z" fill="black"/>
<path opacity="0.3" d="M431.431 227.213H399.399V229.315H431.431V227.213Z" fill="black"/>
<path opacity="0.3" d="M431.431 235.206H399.399V237.323H431.431V235.206Z" fill="black"/>
<path opacity="0.3" d="M431.431 243.2H399.399V245.302H431.431V243.2Z" fill="black"/>
<path opacity="0.3" d="M423.151 251.194H399.399V253.31H423.151V251.194Z" fill="black"/>
<path d="M512.283 208.623V264.779L497.84 282.196H465.851V208.623H512.283Z" fill="black"/>
<path opacity="0.7" d="M512.283 208.623V264.779L497.84 282.196H465.851V208.623H512.283Z" fill="white"/>
<path opacity="0.3" d="M512.283 264.779L497.84 282.196V264.779H512.283Z" fill="black"/>
<path opacity="0.3" d="M505.076 219.233H473.044V221.335H505.076V219.233Z" fill="black"/>
<path opacity="0.3" d="M505.076 227.213H473.044V229.315H505.076V227.213Z" fill="black"/>
<path opacity="0.3" d="M505.076 235.206H473.044V237.323H505.076V235.206Z" fill="black"/>
<path opacity="0.3" d="M505.076 243.2H473.044V245.302H505.076V243.2Z" fill="black"/>
<path opacity="0.3" d="M496.796 251.194H473.044V253.31H496.796V251.194Z" fill="black"/>
<path d="M585.928 208.623V264.779L571.471 282.196H539.496V208.623H585.928Z" fill="black"/>
<path opacity="0.7" d="M585.928 208.623V264.779L571.471 282.196H539.496V208.623H585.928Z" fill="white"/>
<path opacity="0.3" d="M585.928 264.779L571.471 282.196V264.779H585.928Z" fill="black"/>
<path opacity="0.3" d="M578.721 219.233H546.689V221.335H578.721V219.233Z" fill="black"/>
<path opacity="0.3" d="M578.721 227.213H546.689V229.315H578.721V227.213Z" fill="black"/>
<path opacity="0.3" d="M578.721 235.206H546.689V237.323H578.721V235.206Z" fill="black"/>
<path opacity="0.3" d="M578.721 243.2H546.689V245.302H578.721V243.2Z" fill="black"/>
<path opacity="0.3" d="M570.441 251.194H546.689V253.31H570.441V251.194Z" fill="black"/>
<path d="M364.993 305.863V362.019L350.55 379.436H318.561V305.863H364.993Z" fill="black"/>
<path opacity="0.7" d="M364.993 305.863V362.019L350.55 379.436H318.561V305.863H364.993Z" fill="white"/>
<path opacity="0.3" d="M364.993 362.019L350.55 379.436V362.019H364.993Z" fill="black"/>
<path opacity="0.3" d="M357.8 316.473H325.768V318.575H357.8V316.473Z" fill="black"/>
<path opacity="0.3" d="M357.8 324.453H325.768V326.555H357.8V324.453Z" fill="black"/>
<path opacity="0.3" d="M357.8 332.446H325.768V334.563H357.8V332.446Z" fill="black"/>
<path opacity="0.3" d="M357.8 340.44H325.768V342.556H357.8V340.44Z" fill="black"/>
<path opacity="0.3" d="M349.521 348.434H325.768V350.536H349.521V348.434Z" fill="black"/>
<path d="M438.638 305.863V362.019L424.195 379.436H392.206V305.863H438.638Z" fill="black"/>
<path opacity="0.7" d="M438.638 305.863V362.019L424.195 379.436H392.206V305.863H438.638Z" fill="white"/>
<path opacity="0.3" d="M438.638 362.019L424.195 379.436V362.019H438.638Z" fill="black"/>
<path opacity="0.3" d="M431.431 316.473H399.399V318.575H431.431V316.473Z" fill="black"/>
<path opacity="0.3" d="M431.431 324.453H399.399V326.555H431.431V324.453Z" fill="black"/>
<path opacity="0.3" d="M431.431 332.446H399.399V334.563H431.431V332.446Z" fill="black"/>
<path opacity="0.3" d="M431.431 340.44H399.399V342.556H431.431V340.44Z" fill="black"/>
<path opacity="0.3" d="M423.151 348.434H399.399V350.536H423.151V348.434Z" fill="black"/>
<path d="M512.283 305.863V362.019L497.84 379.436H465.851V305.863H512.283Z" fill="black"/>
<path opacity="0.7" d="M512.283 305.863V362.019L497.84 379.436H465.851V305.863H512.283Z" fill="white"/>
<path opacity="0.3" d="M512.283 362.019L497.84 379.436V362.019H512.283Z" fill="black"/>
<path opacity="0.3" d="M505.076 316.473H473.044V318.575H505.076V316.473Z" fill="black"/>
<path opacity="0.3" d="M505.076 324.453H473.044V326.555H505.076V324.453Z" fill="black"/>
<path opacity="0.3" d="M505.076 332.446H473.044V334.563H505.076V332.446Z" fill="black"/>
<path opacity="0.3" d="M505.076 340.44H473.044V342.556H505.076V340.44Z" fill="black"/>
<path opacity="0.3" d="M496.796 348.434H473.044V350.536H496.796V348.434Z" fill="black"/>
<path d="M585.928 305.863V362.019L571.471 379.436H539.496V305.863H585.928Z" fill="black"/>
<path opacity="0.7" d="M585.928 305.863V362.019L571.471 379.436H539.496V305.863H585.928Z" fill="white"/>
<path opacity="0.3" d="M585.928 362.019L571.471 379.436V362.019H585.928Z" fill="black"/>
<path opacity="0.3" d="M578.721 316.473H546.689V318.575H578.721V316.473Z" fill="black"/>
<path opacity="0.3" d="M578.721 324.453H546.689V326.555H578.721V324.453Z" fill="black"/>
<path opacity="0.3" d="M578.721 332.446H546.689V334.563H578.721V332.446Z" fill="black"/>
<path opacity="0.3" d="M578.721 340.44H546.689V342.556H578.721V340.44Z" fill="black"/>
<path opacity="0.3" d="M570.441 348.434H546.689V350.536H570.441V348.434Z" fill="black"/>
<path opacity="0.1" d="M471.843 259.331H397.726C394.29 259.331 391.505 262.116 391.505 265.551V321.092C391.505 324.528 394.29 327.313 397.726 327.313H471.843C475.278 327.313 478.063 324.528 478.063 321.092V265.551C478.063 262.116 475.278 259.331 471.843 259.331Z" fill="black"/>
<g opacity="0.1">
<path d="M466.537 256.17H457.957V246.889C457.957 241.026 455.628 235.403 451.482 231.257C447.336 227.111 441.713 224.782 435.85 224.782C429.986 224.782 424.363 227.111 420.217 231.257C416.071 235.403 413.742 241.026 413.742 246.889V256.17H405.162V246.889C405.162 238.751 408.395 230.945 414.15 225.19C419.905 219.435 427.711 216.202 435.85 216.202C443.989 216.202 451.794 219.435 457.549 225.19C463.304 230.945 466.537 238.751 466.537 246.889V256.17Z" fill="black"/>
</g>
<path d="M436.093 256.471H361.976C358.54 256.471 355.755 259.256 355.755 262.691V318.232C355.755 321.668 358.54 324.453 361.976 324.453H436.093C439.528 324.453 442.313 321.668 442.313 318.232V262.691C442.313 259.256 439.528 256.471 436.093 256.471Z" fill="#263238"/>
<path opacity="0.2" d="M420.434 256.471H361.976C358.54 256.471 355.755 259.256 355.755 262.691V318.232C355.755 321.668 358.54 324.453 361.976 324.453H420.434C423.87 324.453 426.655 321.668 426.655 318.232V262.691C426.655 259.256 423.87 256.471 420.434 256.471Z" fill="white"/>
<path d="M395.552 281.982C395.552 277.291 392.692 273.488 389.175 273.488C385.657 273.488 382.811 277.291 382.811 281.982C382.726 283.528 383.05 285.069 383.751 286.449C384.451 287.83 385.503 289.002 386.801 289.847L385.614 307.579H392.764L391.591 289.847C392.881 288.996 393.926 287.823 394.621 286.443C395.316 285.063 395.637 283.525 395.552 281.982Z" fill="#263238"/>
<path d="M430.787 253.31H422.207V244.029C422.207 238.166 419.878 232.543 415.732 228.397C411.586 224.251 405.963 221.922 400.1 221.922C394.236 221.922 388.613 224.251 384.467 228.397C380.321 232.543 377.992 238.166 377.992 244.029V253.31H369.412V244.029C369.412 235.891 372.645 228.085 378.4 222.33C384.155 216.575 391.961 213.342 400.1 213.342C408.239 213.342 416.044 216.575 421.799 222.33C427.554 228.085 430.787 235.891 430.787 244.029V253.31Z" fill="#263238"/>
<g opacity="0.4">
<path d="M430.787 253.31H422.207V244.029C422.207 238.166 419.878 232.543 415.732 228.397C411.586 224.251 405.963 221.922 400.1 221.922C394.236 221.922 388.613 224.251 384.467 228.397C380.321 232.543 377.992 238.166 377.992 244.029V253.31H369.412V244.029C369.412 235.891 372.645 228.085 378.4 222.33C384.155 216.575 391.961 213.342 400.1 213.342C408.239 213.342 416.044 216.575 421.799 222.33C427.554 228.085 430.787 235.891 430.787 244.029V253.31Z" fill="white"/>
</g>
<path opacity="0.2" d="M430.787 244.029V253.31H424.967V242.971C424.967 239.289 424.242 235.644 422.833 232.242C421.423 228.841 419.357 225.75 416.753 223.147C414.149 220.545 411.057 218.48 407.655 217.073C404.253 215.665 400.607 214.941 396.925 214.943C391.298 214.926 385.804 216.649 381.195 219.877C385.721 216.327 391.155 214.123 396.875 213.515C402.595 212.907 408.37 213.921 413.541 216.44C418.713 218.959 423.071 222.883 426.118 227.761C429.165 232.64 430.778 238.277 430.773 244.029H430.787Z" fill="white"/>
<path d="M309.538 408.451H274.875V407.121H282.697C283.223 407.116 283.731 406.928 284.133 406.588C284.535 406.249 284.806 405.78 284.899 405.262L288.402 384.413L289.089 380.309H300.958L311.583 405.362C311.727 405.7 311.786 406.068 311.753 406.434C311.719 406.8 311.596 407.152 311.393 407.458C311.19 407.764 310.915 408.015 310.591 408.189C310.267 408.362 309.905 408.452 309.538 408.451Z" fill="black"/>
<path opacity="0.4" d="M309.538 408.451H274.875V407.121H282.697C283.223 407.116 283.731 406.928 284.133 406.588C284.535 406.249 284.806 405.78 284.899 405.262L288.402 384.413L289.089 380.309H300.958L311.583 405.362C311.727 405.7 311.786 406.068 311.753 406.434C311.719 406.8 311.596 407.152 311.393 407.458C311.19 407.764 310.915 408.015 310.591 408.189C310.267 408.362 309.905 408.452 309.538 408.451Z" fill="white"/>
<path opacity="0.2" d="M309.581 407.121H282.697C283.223 407.116 283.731 406.928 284.133 406.588C284.535 406.249 284.806 405.78 284.899 405.262L288.402 384.413H300.843L310.31 406.02C310.363 406.14 310.384 406.272 310.373 406.403C310.361 406.533 310.317 406.659 310.245 406.769C310.172 406.878 310.074 406.968 309.958 407.029C309.842 407.091 309.712 407.122 309.581 407.121Z" fill="black"/>
<path d="M328.171 387.988H258.83C258.672 387.994 258.515 387.964 258.371 387.9C258.227 387.836 258.1 387.738 258 387.616C257.9 387.494 257.83 387.35 257.795 387.196C257.761 387.042 257.762 386.882 257.8 386.729L267.667 334.62C267.74 334.285 267.918 333.982 268.175 333.755C268.432 333.529 268.756 333.391 269.097 333.362H338.424C338.581 333.354 338.738 333.384 338.882 333.448C339.026 333.513 339.152 333.61 339.251 333.733C339.35 333.856 339.419 334 339.451 334.154C339.484 334.308 339.48 334.468 339.439 334.62L329.601 386.715C329.531 387.053 329.354 387.359 329.097 387.588C328.839 387.818 328.514 387.958 328.171 387.988Z" fill="black"/>
<path opacity="0.4" d="M328.171 387.988H258.83C258.672 387.994 258.515 387.964 258.371 387.9C258.227 387.836 258.1 387.738 258 387.616C257.9 387.494 257.83 387.35 257.795 387.196C257.761 387.042 257.762 386.882 257.8 386.729L267.667 334.62C267.74 334.285 267.918 333.982 268.175 333.755C268.432 333.529 268.756 333.391 269.097 333.362H338.424C338.581 333.354 338.738 333.384 338.882 333.448C339.026 333.513 339.152 333.61 339.251 333.733C339.35 333.856 339.419 334 339.451 334.154C339.484 334.308 339.48 334.468 339.439 334.62L329.601 386.715C329.531 387.053 329.354 387.359 329.097 387.588C328.839 387.818 328.514 387.958 328.171 387.988Z" fill="white"/>
<path d="M326.741 387.988H257.4C257.242 387.994 257.085 387.964 256.941 387.9C256.797 387.836 256.67 387.738 256.57 387.616C256.47 387.494 256.4 387.35 256.365 387.196C256.331 387.042 256.332 386.882 256.37 386.729L266.237 334.62C266.31 334.285 266.488 333.982 266.745 333.755C267.002 333.529 267.326 333.391 267.667 333.362H336.994C337.151 333.354 337.308 333.384 337.452 333.448C337.596 333.513 337.722 333.61 337.821 333.733C337.92 333.856 337.989 334 338.021 334.154C338.054 334.308 338.05 334.468 338.009 334.62L328.171 386.715C328.101 387.053 327.924 387.359 327.667 387.588C327.409 387.818 327.084 387.958 326.741 387.988Z" fill="#263238"/>
<path d="M325.826 384.784H259.531L268.654 336.579H334.935L325.826 384.784Z" fill="black"/>
<path d="M210.281 408.451V406.821L236.965 401.43H289.175C290.104 401.43 290.995 401.799 291.652 402.456C292.309 403.113 292.678 404.004 292.678 404.933C292.678 405.864 292.309 406.756 291.653 407.415C290.996 408.075 290.105 408.447 289.175 408.451H210.281Z" fill="black"/>
<path opacity="0.4" d="M292.678 404.947C292.68 405.874 292.315 406.763 291.663 407.421C291.001 408.078 290.107 408.448 289.175 408.451H210.281V406.835L236.98 401.43H289.175C289.636 401.43 290.093 401.521 290.519 401.698C290.945 401.875 291.331 402.134 291.657 402.461C291.983 402.788 292.24 403.176 292.416 403.602C292.591 404.029 292.68 404.486 292.678 404.947Z" fill="white"/>
<path opacity="0.4" d="M292.678 404.947C292.68 405.874 292.315 406.763 291.663 407.421C291.001 408.078 290.107 408.448 289.175 408.451H257.471V406.835L284.17 401.43H289.175C289.636 401.43 290.093 401.521 290.519 401.698C290.945 401.875 291.332 402.134 291.657 402.461C291.983 402.788 292.24 403.176 292.416 403.602C292.591 404.029 292.68 404.486 292.678 404.947Z" fill="white"/>
<path d="M311.754 595.481H318.904L331.731 416.816H322.25L311.754 595.481Z" fill="#263238"/>
<path opacity="0.1" d="M311.754 595.481H318.904L331.102 425.682L331.731 417.102H322.25L321.75 425.682L311.754 595.481Z" fill="white"/>
<path opacity="0.2" d="M321.75 425.253H331.102L331.731 417.102H322.251L321.75 425.253Z" fill="black"/>
<path d="M259.345 595.481H266.48L267.653 416.816H258.172L259.345 595.481Z" fill="#263238"/>
<path opacity="0.1" d="M258.172 417.102L258.358 445.931L259.33 595.481H266.48L267.453 445.931L267.639 417.102H258.172Z" fill="white"/>
<path opacity="0.2" d="M258.172 417.102L258.358 446.246H267.453L267.639 417.102H258.172Z" fill="black"/>
<path d="M183.512 595.481H190.648L203.489 416.816H194.008L183.512 595.481Z" fill="#263238"/>
<path opacity="0.1" d="M183.498 595.481H190.648L202.86 425.682L203.489 417.102H194.008L193.493 425.682L183.498 595.481Z" fill="white"/>
<path opacity="0.2" d="M193.493 425.253H202.86L203.489 417.102H194.008L193.493 425.253Z" fill="black"/>
<path d="M393.464 595.481H400.6L390.104 416.816H380.637L393.464 595.481Z" fill="#263238"/>
<path opacity="0.1" d="M380.637 417.102L381.267 425.682L393.464 595.481H400.6L390.619 425.682L390.104 417.102H380.637Z" fill="white"/>
<path opacity="0.2" d="M390.104 417.102H380.637L381.267 425.253H390.619L390.104 417.102Z" fill="black"/>
<path d="M394.523 421.278H189.589C189.184 421.278 188.782 421.198 188.407 421.043C188.033 420.888 187.692 420.66 187.405 420.373C187.118 420.087 186.891 419.746 186.736 419.371C186.58 418.996 186.501 418.595 186.501 418.189V412.326H397.611V418.189C397.611 418.595 397.532 418.996 397.376 419.371C397.221 419.746 396.994 420.087 396.707 420.373C396.42 420.66 396.079 420.888 395.705 421.043C395.33 421.198 394.928 421.278 394.523 421.278Z" fill="black"/>
<path opacity="0.4" d="M394.523 421.278H189.589C189.184 421.278 188.782 421.198 188.407 421.043C188.033 420.888 187.692 420.66 187.405 420.373C187.118 420.087 186.891 419.746 186.736 419.371C186.58 418.996 186.501 418.595 186.501 418.189V412.326H397.611V418.189C397.611 418.595 397.532 418.996 397.376 419.371C397.221 419.746 396.994 420.087 396.707 420.373C396.42 420.66 396.079 420.888 395.705 421.043C395.33 421.198 394.928 421.278 394.523 421.278Z" fill="white"/>
<path opacity="0.2" d="M186.486 416.802H397.611V412.326H186.486V416.802Z" fill="black"/>
<path d="M182.068 413.499H402.044C402.712 413.499 403.352 413.234 403.824 412.762C404.296 412.29 404.561 411.649 404.561 410.982C404.561 410.314 404.296 409.674 403.824 409.202C403.352 408.73 402.712 408.465 402.044 408.465H182.068C181.4 408.465 180.76 408.73 180.288 409.202C179.816 409.674 179.551 410.314 179.551 410.982C179.551 411.649 179.816 412.29 180.288 412.762C180.76 413.234 181.4 413.499 182.068 413.499Z" fill="black"/>
<path opacity="0.4" d="M182.068 413.499H402.044C402.712 413.499 403.352 413.234 403.824 412.762C404.296 412.29 404.561 411.649 404.561 410.982C404.561 410.314 404.296 409.674 403.824 409.202C403.352 408.73 402.712 408.465 402.044 408.465H182.068C181.4 408.465 180.76 408.73 180.288 409.202C179.816 409.674 179.551 410.314 179.551 410.982C179.551 411.649 179.816 412.29 180.288 412.762C180.76 413.234 181.4 413.499 182.068 413.499Z" fill="white"/>
<path opacity="0.3" d="M272.329 363.592C272.015 363.589 271.706 363.517 271.422 363.382C271.139 363.246 270.889 363.05 270.69 362.807C270.491 362.564 270.348 362.281 270.27 361.977C270.193 361.672 270.183 361.355 270.241 361.046L271.128 356.485C271.253 355.862 271.588 355.302 272.078 354.899C272.568 354.495 273.182 354.272 273.816 354.268H310.996C311.312 354.267 311.624 354.338 311.908 354.474C312.193 354.61 312.443 354.809 312.641 355.055C312.844 355.295 312.99 355.578 313.067 355.883C313.143 356.188 313.149 356.506 313.084 356.814L312.198 361.375C312.078 361.998 311.746 362.559 311.258 362.963C310.77 363.368 310.157 363.59 309.523 363.592H272.329Z" fill="white"/>
<path d="M309.523 362.877H272.343C272.132 362.88 271.922 362.837 271.73 362.749C271.537 362.662 271.366 362.533 271.229 362.372C271.092 362.21 270.993 362.02 270.938 361.816C270.884 361.612 270.875 361.398 270.913 361.189L271.814 356.613C271.901 356.154 272.146 355.739 272.507 355.442C272.867 355.144 273.32 354.982 273.788 354.983H310.968C311.179 354.98 311.389 355.023 311.582 355.111C311.774 355.198 311.945 355.327 312.082 355.488C312.219 355.65 312.318 355.84 312.373 356.044C312.427 356.248 312.436 356.462 312.398 356.671L311.511 361.247C311.421 361.707 311.174 362.122 310.811 362.42C310.448 362.717 309.993 362.879 309.523 362.877Z" fill="white"/>
<path d="M278.632 359.994C279.361 358.952 279.28 357.637 278.451 357.058C277.623 356.479 276.361 356.853 275.632 357.895C274.903 358.937 274.984 360.252 275.812 360.831C276.641 361.411 277.903 361.036 278.632 359.994Z" fill="#263238"/>
<path d="M284.899 358.93C284.797 359.501 284.509 360.023 284.079 360.413C283.65 360.804 283.104 361.042 282.525 361.089C282.269 361.081 282.018 361.014 281.792 360.893C281.566 360.772 281.371 360.6 281.223 360.39C281.075 360.181 280.977 359.94 280.937 359.687C280.898 359.434 280.917 359.174 280.995 358.93C281.099 358.36 281.388 357.839 281.817 357.449C282.246 357.059 282.791 356.821 283.369 356.771C283.626 356.776 283.879 356.841 284.106 356.961C284.334 357.082 284.53 357.254 284.679 357.464C284.828 357.674 284.925 357.916 284.963 358.171C285.002 358.425 284.98 358.685 284.899 358.93Z" fill="#263238"/>
<path d="M290.719 358.93C290.615 359.5 290.326 360.021 289.897 360.411C289.468 360.801 288.923 361.039 288.345 361.089C288.088 361.084 287.835 361.018 287.607 360.898C287.379 360.777 287.183 360.605 287.033 360.396C286.883 360.186 286.784 359.945 286.744 359.69C286.703 359.436 286.723 359.176 286.801 358.93C286.908 358.359 287.2 357.838 287.631 357.448C288.062 357.058 288.609 356.82 289.189 356.771C289.445 356.779 289.696 356.846 289.922 356.967C290.148 357.088 290.343 357.26 290.491 357.47C290.639 357.679 290.737 357.92 290.777 358.173C290.816 358.426 290.796 358.686 290.719 358.93Z" fill="#263238"/>
<path d="M296.081 359.983C296.81 358.941 296.729 357.627 295.901 357.047C295.072 356.468 293.81 356.843 293.081 357.885C292.353 358.927 292.433 360.241 293.262 360.821C294.09 361.4 295.352 361.025 296.081 359.983Z" fill="#263238"/>
<path d="M302.345 358.93C302.238 359.501 301.946 360.022 301.515 360.412C301.083 360.802 300.536 361.04 299.957 361.089C299.7 361.081 299.449 361.014 299.223 360.893C298.998 360.772 298.803 360.6 298.654 360.39C298.506 360.181 298.408 359.94 298.369 359.687C298.329 359.434 298.349 359.174 298.427 358.93C298.533 358.361 298.823 357.842 299.251 357.452C299.68 357.062 300.224 356.823 300.8 356.771C301.058 356.776 301.311 356.842 301.538 356.962C301.766 357.083 301.963 357.255 302.113 357.464C302.263 357.674 302.362 357.915 302.402 358.17C302.442 358.424 302.423 358.684 302.345 358.93Z" fill="#263238"/>
<path d="M307.698 360.006C308.427 358.964 308.346 357.65 307.518 357.07C306.69 356.491 305.427 356.866 304.699 357.908C303.97 358.95 304.051 360.264 304.879 360.844C305.707 361.423 306.97 361.048 307.698 360.006Z" fill="#263238"/>
<path opacity="0.3" d="M314.714 363.592C314.474 363.595 314.236 363.544 314.018 363.442C313.801 363.341 313.608 363.191 313.456 363.006C313.293 362.809 313.179 362.578 313.122 362.33C313.064 362.081 313.066 361.823 313.127 361.576L314.257 355.856C314.356 355.387 314.611 354.966 314.979 354.659C315.348 354.353 315.809 354.18 316.287 354.168H322.007C322.248 354.165 322.486 354.216 322.703 354.318C322.921 354.419 323.113 354.569 323.266 354.754C323.429 354.95 323.543 355.182 323.6 355.43C323.657 355.679 323.655 355.937 323.595 356.184L322.465 361.904C322.365 362.373 322.111 362.794 321.743 363.101C321.374 363.407 320.913 363.58 320.434 363.592H314.714Z" fill="white"/>
<path d="M314.714 362.877H320.434C320.741 362.861 321.035 362.747 321.272 362.551C321.509 362.355 321.677 362.088 321.75 361.79L322.88 356.07C322.916 355.936 322.919 355.796 322.891 355.66C322.863 355.525 322.804 355.397 322.717 355.289C322.631 355.181 322.521 355.094 322.395 355.036C322.269 354.978 322.132 354.95 321.993 354.955H316.273C315.96 354.969 315.66 355.086 315.42 355.287C315.179 355.489 315.012 355.764 314.943 356.07L313.813 361.79C313.783 361.923 313.783 362.062 313.814 362.195C313.845 362.328 313.907 362.452 313.994 362.557C314.082 362.662 314.192 362.746 314.317 362.801C314.442 362.857 314.578 362.883 314.714 362.877Z" fill="#263238"/>
<path d="M317.617 361.432C317.574 361.434 317.531 361.426 317.491 361.409C317.452 361.391 317.417 361.365 317.388 361.332C317.337 361.25 317.319 361.151 317.338 361.055C317.356 360.96 317.41 360.875 317.489 360.818L319.762 358.93L318.246 357.042C318.192 356.961 318.172 356.861 318.19 356.764C318.209 356.668 318.265 356.583 318.347 356.528C318.415 356.465 318.504 356.431 318.597 356.431C318.689 356.431 318.779 356.465 318.847 356.528L320.563 358.673C320.618 358.754 320.638 358.854 320.619 358.951C320.601 359.047 320.544 359.132 320.463 359.187L317.903 361.332C317.823 361.398 317.721 361.434 317.617 361.432Z" fill="black"/>
<path d="M320.191 359.287H316.33C316.286 359.289 316.242 359.28 316.201 359.261C316.161 359.243 316.126 359.215 316.098 359.18C316.07 359.146 316.051 359.105 316.041 359.061C316.032 359.018 316.033 358.973 316.044 358.93C316.066 358.831 316.12 358.743 316.198 358.678C316.276 358.614 316.372 358.576 316.473 358.572H320.32C320.364 358.571 320.409 358.58 320.449 358.599C320.489 358.617 320.525 358.645 320.552 358.68C320.58 358.714 320.599 358.755 320.609 358.798C320.618 358.842 320.617 358.887 320.606 358.93C320.585 359.026 320.533 359.113 320.458 359.178C320.383 359.242 320.29 359.281 320.191 359.287Z" fill="black"/>
<path d="M194.866 271.986H225.697C228.951 271.986 231.589 269.348 231.589 266.094V235.264C231.589 232.01 228.951 229.372 225.697 229.372H194.866C191.612 229.372 188.974 232.01 188.974 235.264V266.094C188.974 269.348 191.612 271.986 194.866 271.986Z" fill="black"/>
<path d="M206.95 270.384L210.281 284.713L213.613 270.384H206.95Z" fill="black"/>
<path opacity="0.3" d="M209.91 263.449C206.283 261.287 203.255 258.252 201.102 254.62C198.949 250.989 197.739 246.876 197.583 242.657V242.199L210.267 236.794L222.937 242.199V242.657C222.79 246.876 221.585 250.991 219.434 254.624C217.283 258.257 214.254 261.291 210.625 263.449L210.253 263.678L209.91 263.449Z" fill="white"/>
<path opacity="0.6" d="M210.281 237.58L222.251 242.671C222.12 246.771 220.954 250.771 218.861 254.299C216.768 257.827 213.817 260.768 210.281 262.848V237.58Z" fill="white"/>
<path opacity="0.4" d="M210.282 237.58L198.298 242.671C198.43 246.772 199.598 250.773 201.694 254.301C203.789 257.829 206.743 260.77 210.282 262.848V237.58Z" fill="white"/>
<path d="M198.77 399.127L208.78 400.629C211.053 399.906 213.39 399.404 215.758 399.127C218.328 398.916 220.911 398.916 223.48 399.127C223.48 399.127 228.014 400.829 228.014 405.162C228.014 405.162 217.446 408.022 213.399 406.292L198.77 405.162V399.127Z" fill="#E4897B"/>
<path opacity="0.2" d="M198.77 399.127L208.78 400.629C211.053 399.906 213.39 399.404 215.758 399.127C218.328 398.916 220.911 398.916 223.48 399.127C223.48 399.127 228.014 400.829 228.014 405.162C228.014 405.162 217.446 408.022 213.399 406.292L198.77 405.162V399.127Z" fill="black"/>
<path d="M223.566 331.531C223.722 333.588 224.125 335.619 224.767 337.58C224.243 337.903 223.639 338.073 223.023 338.073C222.407 338.073 221.803 337.903 221.278 337.58L223.566 331.531Z" fill="#AA473D"/>
<path d="M227.47 328.671C227.084 329.601 226.398 330.201 225.926 330.001C225.454 329.801 225.411 328.914 225.783 327.985C226.155 327.055 226.855 326.469 227.327 326.655C227.799 326.841 227.842 327.756 227.47 328.671Z" fill="#263238"/>
<path d="M229.815 325.468C229.731 325.493 229.642 325.493 229.558 325.468C228.798 325.021 227.947 324.751 227.068 324.676C226.19 324.602 225.306 324.726 224.481 325.039C224.358 325.102 224.215 325.113 224.084 325.07C223.952 325.027 223.843 324.933 223.781 324.81C223.718 324.687 223.707 324.544 223.75 324.412C223.793 324.281 223.886 324.172 224.009 324.11C224.989 323.71 226.049 323.545 227.104 323.627C228.159 323.709 229.18 324.036 230.087 324.581C230.146 324.617 230.197 324.663 230.237 324.718C230.278 324.774 230.307 324.836 230.323 324.903C230.339 324.969 230.341 325.039 230.33 325.106C230.319 325.174 230.295 325.238 230.259 325.296C230.206 325.361 230.137 325.41 230.059 325.44C229.982 325.47 229.898 325.48 229.815 325.468Z" fill="#263238"/>
<path d="M220.778 339.31C220.449 339.711 220.12 340.097 219.762 340.454C217.76 342.535 215.171 343.957 212.341 344.53C211.624 344.675 210.897 344.771 210.167 344.816C208.244 344.936 206.318 344.626 204.53 343.909C202.741 343.192 201.135 342.085 199.828 340.669C198.649 339.388 197.744 337.879 197.168 336.236C194.609 329.372 197.168 323.966 200.872 314.457C201.696 312.228 203.075 310.246 204.879 308.699C206.682 307.152 208.852 306.091 211.18 305.617C213.509 305.143 215.92 305.271 218.185 305.99C220.45 306.709 222.494 307.994 224.124 309.724C231.531 317.531 226.555 331.874 220.778 339.31Z" fill="#E4897B"/>
<path opacity="0.2" d="M212.341 344.53C211.624 344.675 210.897 344.771 210.167 344.816C208.244 344.936 206.318 344.626 204.53 343.909C202.741 343.192 201.135 342.085 199.828 340.669C200.747 339.745 201.78 338.942 202.903 338.281C206.584 339.413 209.861 341.582 212.341 344.53Z" fill="black"/>
<path d="M181.51 344.887C182.454 351.58 197.097 354.082 197.097 354.082C197.097 354.082 204.247 357.371 204.619 354.511C201.63 351.051 201.301 348.033 202.331 345.388C203.014 343.774 204.016 342.315 205.276 341.098C205.949 340.4 206.66 339.741 207.407 339.124L202.931 320.792C199.714 327.799 188.76 343.886 181.51 344.887Z" fill="#E4897B"/>
<path d="M223.294 304.59C223.294 304.59 226.426 304.204 228.829 310.038C230.845 314.943 226.083 316.016 226.297 321.235C226.512 326.455 221.721 329.358 221.721 329.358C221.721 329.358 217.717 332.818 214.3 330.945C214.3 330.945 209.838 333.133 208.666 336.951C207.493 340.769 200.586 333.876 194.366 334.92C194.366 334.92 190.161 330.988 190.476 321.435C190.714 317.288 191.733 313.222 193.479 309.452C194.304 307.456 195.517 305.644 197.049 304.122C198.581 302.6 200.401 301.398 202.402 300.586C209.509 297.354 221.965 299.757 223.294 304.59Z" fill="#263238"/>
<path d="M213.442 328.071C213.226 329.022 213.224 330.01 213.437 330.962C213.649 331.914 214.071 332.807 214.672 333.576C216.187 335.235 218.633 333.133 219.619 330.23C220.477 327.642 220.778 323.595 218.547 323.08C216.316 322.565 213.914 325.282 213.442 328.071Z" fill="#E4897B"/>
<path d="M215.015 350.422C212.965 356.142 211.135 361.623 209.524 366.866C208.494 370.127 207.55 373.316 206.664 376.39C205.939 378.974 205.262 381.481 204.633 383.912C204.333 385.085 204.032 386.243 203.746 387.387C202.173 393.693 200.886 399.442 199.9 404.547C198.233 412.516 196.997 420.569 196.196 428.671L140.14 421.607C142.085 411.969 143.601 403.546 145.717 394.437C146.89 389.46 148.22 384.284 150.007 378.607C151.208 374.531 152.61 370.198 154.297 365.494C159.931 349.335 165.122 344.859 165.122 344.859C186.558 341.427 215.015 350.422 215.015 350.422Z" fill="#263238"/>
<path d="M233.676 400.171L243.686 401.673C245.959 400.95 248.296 400.448 250.665 400.171C253.239 399.96 255.827 399.96 258.401 400.171C258.401 400.171 262.92 401.873 262.92 406.206C262.92 406.206 252.366 409.066 248.305 407.336L233.691 406.206L233.676 400.171Z" fill="#E4897B"/>
<path d="M171.714 585.027L182.168 585.213L187.373 561.118L176.934 560.932L171.714 585.027Z" fill="#EBB376"/>
<path opacity="0.2" d="M176.934 560.932L187.373 561.132L184.398 574.903L174.06 574.216L176.934 560.932Z" fill="black"/>
<path d="M205.305 526.026C201.322 541.36 196.232 556.386 190.076 570.985L171.014 569.555C171.014 569.555 178.836 538.996 181.667 510.996C183.426 493.722 183.269 479.422 178.207 478.321C175.032 477.62 167.582 477.634 158.029 477.863V442.256C184.813 447.762 211.468 458.129 213.499 466.452C216.33 478.163 211.383 502.96 205.305 526.026Z" fill="black"/>
<path d="M168.983 570.413L191.691 571.928L195.038 562.104L170.013 560.946L168.983 570.413Z" fill="black"/>
<path opacity="0.2" d="M168.983 570.413L191.691 571.928L195.038 562.104L170.013 560.946L168.983 570.413Z" fill="white"/>
<path d="M183.741 584.698H183.955C183.955 584.698 184.198 584.77 184.227 584.799H184.313C185.196 585.078 186.107 585.26 187.03 585.342C187.717 585.47 188.428 585.332 189.017 584.956C189.204 584.793 189.34 584.579 189.409 584.341C189.477 584.102 189.476 583.849 189.403 583.612C189.381 583.456 189.321 583.309 189.229 583.182C189.136 583.055 189.015 582.952 188.874 582.882C187.887 582.725 186.875 582.917 186.014 583.426C186.63 582.777 186.994 581.93 187.044 581.038C187.002 580.827 186.893 580.635 186.733 580.49C186.574 580.346 186.372 580.257 186.157 580.237C185.751 580.177 185.337 580.274 184.999 580.509C183.898 581.452 183.726 584.412 183.726 584.584L183.741 584.698ZM184.87 584.098L184.656 584.212C184.588 583.082 184.895 581.961 185.528 581.023C185.597 580.954 185.68 580.901 185.771 580.866C185.862 580.832 185.96 580.817 186.057 580.823H186.186C186.529 580.823 186.601 581.052 186.615 581.195C186.394 582.338 185.776 583.366 184.87 584.098ZM185.013 584.613C186.272 583.912 188.059 583.183 188.731 583.454C188.798 583.489 188.855 583.54 188.898 583.603C188.94 583.665 188.967 583.737 188.974 583.812C189.017 583.962 189.018 584.121 188.977 584.272C188.937 584.423 188.857 584.56 188.746 584.67C188.231 585.127 186.858 585.099 185.013 584.613Z" fill="black"/>
<path d="M183.498 583.44L171.786 582.711C171.591 582.691 171.396 582.749 171.243 582.872C171.09 582.995 170.992 583.174 170.971 583.369L169.827 592.592C169.795 593.077 169.956 593.555 170.275 593.921C170.594 594.288 171.044 594.514 171.529 594.551C175.618 594.737 177.577 594.623 182.725 594.909C187.295 595.379 191.892 595.522 196.482 595.338C200.772 594.923 200.3 590.619 198.427 590.418C193.951 589.904 188.045 586.629 185.242 584.141C184.756 583.717 184.142 583.47 183.498 583.44Z" fill="#263238"/>
<path opacity="0.2" d="M205.305 526.026C198.155 521.521 189.847 516.216 181.667 510.968C183.426 493.693 183.269 479.393 178.207 478.292C175.032 477.591 167.582 477.606 158.029 477.835V442.256C184.813 447.762 211.468 458.129 213.499 466.452C216.33 478.163 211.383 502.96 205.305 526.026Z" fill="black"/>
<path d="M232.818 585.027L243.272 585.213L248.477 561.118L238.038 560.932L232.818 585.027Z" fill="#EBB376"/>
<path opacity="0.2" d="M238.038 560.932L248.477 561.132L245.502 574.903L235.164 574.216L238.038 560.932Z" fill="black"/>
<path d="M194.866 438.767L196.553 425.268L141.97 416.273C141.97 416.273 124.11 451.651 132.847 469.04C140.869 484.942 226.183 475.461 239.31 478.335C252.438 481.209 232.16 569.583 232.16 569.583L251.237 571.013C251.237 571.013 280.695 491.505 274.646 466.495C271.957 455.555 226.984 441.098 194.866 438.767Z" fill="black"/>
<path d="M230.087 570.413L252.795 571.928L256.142 562.104L231.117 560.946L230.087 570.413Z" fill="black"/>
<path opacity="0.2" d="M230.087 570.413L252.795 571.928L256.142 562.104L231.117 560.946L230.087 570.413Z" fill="white"/>
<path d="M244.845 584.698H245.059C245.059 584.698 245.302 584.77 245.331 584.799H245.417C246.3 585.078 247.211 585.26 248.134 585.342C248.821 585.47 249.532 585.332 250.121 584.956C250.308 584.793 250.444 584.579 250.513 584.341C250.581 584.102 250.579 583.849 250.507 583.612C250.485 583.456 250.425 583.309 250.332 583.182C250.24 583.055 250.119 582.952 249.978 582.882C248.991 582.725 247.979 582.917 247.118 583.426C247.734 582.777 248.098 581.93 248.148 581.038C248.106 580.827 247.997 580.635 247.837 580.49C247.677 580.346 247.476 580.257 247.261 580.237C246.855 580.177 246.441 580.274 246.103 580.509C245.002 581.452 244.83 584.412 244.83 584.584L244.845 584.698ZM245.974 584.098L245.76 584.212C245.692 583.082 245.999 581.961 246.632 581.023C246.701 580.954 246.784 580.901 246.875 580.866C246.966 580.832 247.064 580.817 247.161 580.823H247.29C247.633 580.823 247.705 581.052 247.719 581.195C247.5 582.342 246.876 583.373 245.96 584.098H245.974ZM246.117 584.613C247.376 583.912 249.163 583.183 249.835 583.454C249.902 583.489 249.959 583.54 250.002 583.603C250.044 583.665 250.071 583.737 250.078 583.812C250.121 583.962 250.122 584.121 250.081 584.272C250.041 584.423 249.961 584.56 249.85 584.67C249.335 585.127 247.962 585.099 246.117 584.613Z" fill="black"/>
<path d="M244.602 583.44L232.89 582.711C232.695 582.691 232.499 582.749 232.347 582.872C232.194 582.995 232.096 583.174 232.075 583.369L230.931 592.592C230.899 593.077 231.06 593.555 231.379 593.921C231.697 594.288 232.148 594.514 232.632 594.551C236.722 594.737 238.681 594.623 243.829 594.909C248.399 595.379 252.996 595.522 257.586 595.338C261.947 594.923 261.418 590.619 259.531 590.418C255.055 589.904 249.149 586.629 246.346 584.141C245.86 583.717 245.245 583.47 244.602 583.44Z" fill="#263238"/>
<path d="M139.968 422.422L165.251 425.74L166.08 422.007L140.741 418.318L139.968 422.422Z" fill="black"/>
<path d="M168.182 422.036L167.868 425.74L191.248 428.957V425.282L168.182 422.036Z" fill="black"/>
<path d="M192.693 425.496V428.957L196.096 429.4V426.054L192.693 425.496Z" fill="black"/>
<path opacity="0.2" d="M209.524 366.866C208.494 370.127 207.55 373.316 206.664 376.39C205.939 378.974 205.262 381.481 204.633 383.912C202.874 374.331 206.063 362.891 206.063 362.891L209.524 366.866Z" fill="black"/>
<path d="M215.015 350.35C219.576 351.28 221.078 386.729 221.278 390.504C221.478 394.28 243.672 401.616 243.672 401.616V406.778C243.672 406.778 219.877 405.119 214.314 402.845C208.751 400.572 207.35 367.739 207.35 367.739L215.015 350.35Z" fill="#E4897B"/>
<path d="M215.015 350.35C219.205 351.651 221.278 375.032 221.278 375.032L208.322 380.38L205.105 367.381C205.105 367.381 204.19 364.736 205.992 359.159C208.608 351.022 215.015 350.35 215.015 350.35Z" fill="#263238"/>
<path d="M118.375 466.924H221.65C224.65 466.924 227.527 468.115 229.648 470.237C231.77 472.358 232.961 475.235 232.961 478.235V484.284H107.064V478.235C107.064 475.235 108.256 472.358 110.377 470.237C112.498 468.115 115.375 466.924 118.375 466.924Z" fill="black"/>
<path d="M151.966 423.924H221.307C222.142 423.923 222.968 424.112 223.72 424.475C224.473 424.838 225.134 425.367 225.653 426.021C226.173 426.676 226.538 427.439 226.722 428.255C226.905 429.07 226.902 429.916 226.712 430.73L214.314 484.284H211.454L222.007 437.351C222.192 436.54 222.192 435.697 222.006 434.886C221.821 434.075 221.454 433.317 220.935 432.667C220.415 432.017 219.756 431.492 219.006 431.132C218.256 430.772 217.434 430.586 216.602 430.587H153.382L151.966 423.924Z" fill="#263238"/>
<path d="M178.221 486.2V531.46C178.221 532.157 177.944 532.827 177.45 533.32C176.957 533.813 176.288 534.091 175.59 534.091H164.45C163.752 534.091 163.083 533.813 162.589 533.32C162.096 532.827 161.819 532.157 161.819 531.46V486.2H178.221Z" fill="#263238"/>
<path d="M116.96 590.676C116.96 589.726 116.678 588.797 116.15 588.006C115.622 587.216 114.872 586.6 113.994 586.237C113.116 585.873 112.15 585.778 111.218 585.963C110.285 586.149 109.429 586.606 108.757 587.278C108.085 587.95 107.628 588.806 107.442 589.738C107.257 590.671 107.352 591.637 107.716 592.515C108.08 593.393 108.695 594.143 109.485 594.671C110.276 595.199 111.205 595.481 112.155 595.481C113.429 595.481 114.651 594.974 115.552 594.073C116.453 593.172 116.96 591.95 116.96 590.676Z" fill="#263238"/>
<path opacity="0.2" d="M114.557 590.676C114.557 590.201 114.416 589.736 114.152 589.341C113.888 588.946 113.513 588.638 113.074 588.456C112.635 588.274 112.152 588.227 111.686 588.32C111.22 588.412 110.792 588.641 110.456 588.977C110.12 589.313 109.891 589.741 109.799 590.207C109.706 590.673 109.754 591.156 109.935 591.595C110.117 592.034 110.425 592.409 110.82 592.673C111.215 592.937 111.68 593.078 112.155 593.078C112.791 593.074 113.4 592.82 113.85 592.37C114.299 591.921 114.554 591.312 114.557 590.676Z" fill="white"/>
<path d="M232.718 590.676C232.721 589.721 232.44 588.788 231.912 587.993C231.384 587.198 230.631 586.579 229.75 586.212C228.869 585.845 227.899 585.749 226.962 585.934C226.026 586.12 225.166 586.579 224.491 587.254C223.817 587.929 223.357 588.789 223.172 589.725C222.986 590.661 223.083 591.631 223.45 592.512C223.816 593.393 224.436 594.146 225.231 594.674C226.025 595.203 226.959 595.483 227.913 595.481C229.187 595.477 230.406 594.969 231.307 594.069C232.207 593.169 232.714 591.949 232.718 590.676Z" fill="#263238"/>
<path opacity="0.2" d="M230.316 590.676C230.316 590.201 230.175 589.736 229.911 589.341C229.647 588.946 229.272 588.638 228.833 588.456C228.394 588.274 227.911 588.227 227.445 588.32C226.979 588.412 226.551 588.641 226.215 588.977C225.879 589.313 225.65 589.741 225.557 590.207C225.464 590.673 225.512 591.156 225.694 591.595C225.876 592.034 226.184 592.409 226.579 592.673C226.974 592.937 227.438 593.078 227.913 593.078C228.549 593.074 229.158 592.82 229.608 592.37C230.058 591.921 230.312 591.312 230.316 590.676Z" fill="white"/>
<path d="M174.002 569.569V517.832H166.052V569.569C135.078 570.37 116.245 581.195 112.484 583.569C112.262 583.7 112.079 583.889 111.956 584.116C111.833 584.342 111.773 584.598 111.783 584.856V589.146C111.781 589.346 111.819 589.545 111.894 589.73C111.97 589.916 112.081 590.085 112.222 590.227C112.363 590.369 112.531 590.482 112.715 590.559C112.9 590.636 113.099 590.676 113.299 590.676C113.567 590.673 113.829 590.601 114.06 590.465C114.291 590.33 114.482 590.136 114.614 589.904L116.459 586.672C132.507 581.555 149.211 578.79 166.052 578.464V587.044C166.052 587.302 166.103 587.558 166.202 587.797C166.301 588.035 166.447 588.252 166.63 588.434C166.814 588.616 167.032 588.76 167.271 588.858C167.51 588.955 167.767 589.005 168.025 589.003H172.043C172.563 589.003 173.061 588.796 173.429 588.429C173.796 588.062 174.002 587.563 174.002 587.044V578.464C190.848 578.789 207.557 581.554 223.609 586.672L225.439 589.904C225.573 590.138 225.767 590.333 226 590.469C226.234 590.605 226.499 590.676 226.769 590.676C227.173 590.672 227.558 590.509 227.842 590.223C228.126 589.936 228.285 589.549 228.285 589.146V584.856C228.295 584.598 228.236 584.342 228.112 584.116C227.989 583.889 227.807 583.7 227.584 583.569C223.809 581.195 204.99 570.37 174.002 569.569Z" fill="#263238"/>
<path d="M172.644 585.857H167.424V595.481H172.644V585.857Z" fill="#263238"/>
<path opacity="0.2" d="M178.221 486.157H161.862V504.962H178.221V486.157Z" fill="black"/>
<path d="M236.451 481.495V486.901C236.451 487.264 236.379 487.624 236.239 487.96C236.099 488.296 235.895 488.601 235.637 488.857C235.379 489.114 235.073 489.317 234.737 489.455C234.4 489.593 234.04 489.663 233.676 489.661H106.406C106.043 489.663 105.684 489.592 105.348 489.454C105.012 489.316 104.707 489.113 104.451 488.856C104.194 488.6 103.991 488.295 103.853 487.959C103.715 487.623 103.645 487.264 103.646 486.901V481.495C103.646 480.763 103.937 480.061 104.455 479.544C104.972 479.026 105.674 478.735 106.406 478.735H233.676C234.41 478.735 235.113 479.026 235.633 479.543C236.153 480.06 236.447 480.762 236.451 481.495Z" fill="#263238"/>
<path d="M177.892 484.284H103.632C103.632 484.284 80.08 445.045 80.08 380.208V356.399C80.0837 351.699 81.9536 347.192 85.2786 343.87C88.6036 340.547 93.1116 338.681 97.812 338.681H129.272C133.876 338.679 138.3 340.469 141.607 343.672C144.914 346.875 146.845 351.24 146.99 355.841C147.891 389.303 152.81 461.647 177.892 484.284Z" fill="#263238"/>
<path opacity="0.2" d="M161.59 484.284H106.978C105.946 484.288 104.932 484.008 104.049 483.473C103.166 482.938 102.447 482.169 101.973 481.252C96.5965 470.899 80.08 434.534 80.08 380.208V356.399C80.08 351.7 81.9466 347.193 85.2694 343.871C88.5921 340.548 93.0986 338.681 97.7977 338.681H124.968C129.572 338.679 133.996 340.469 137.303 343.672C140.61 346.875 142.54 351.24 142.685 355.841C143.5 385.685 147.504 446.618 166.237 475.404C166.803 476.257 167.13 477.247 167.183 478.269C167.236 479.292 167.013 480.31 166.539 481.217C166.064 482.125 165.354 482.888 164.484 483.427C163.613 483.967 162.614 484.262 161.59 484.284Z" fill="white"/>
<path opacity="0.2" d="M236.451 481.495V486.901C236.451 487.633 236.16 488.335 235.642 488.852C235.125 489.37 234.423 489.661 233.691 489.661H176.648C176.158 489.663 175.673 489.568 175.221 489.382C174.768 489.196 174.356 488.922 174.01 488.577C173.663 488.231 173.388 487.821 173.2 487.369C173.012 486.917 172.916 486.432 172.916 485.943V482.468C172.916 481.478 173.309 480.529 174.009 479.829C174.709 479.129 175.658 478.735 176.648 478.735H233.676C234.41 478.735 235.113 479.026 235.633 479.543C236.153 480.06 236.447 480.762 236.451 481.495Z" fill="black"/>
<path d="M103.603 336.579L108.322 330.402C108.322 330.402 128.471 331.317 128.957 338.681C129.444 346.046 103.603 336.579 103.603 336.579Z" fill="black"/>
<path d="M90.3617 355.069C90.3617 355.069 91.5915 387.816 90.3617 472.329C90.3617 475.189 79.6939 475.075 78.9217 472.329C76.362 462.705 78.9217 385.857 78.9217 385.857" fill="black"/>
<path d="M79.1648 472.758L90.0185 473.13V478.549L79.1648 477.992V472.758Z" fill="black"/>
<path opacity="0.2" d="M90.3617 355.069C90.3617 355.069 91.5915 387.816 90.3617 472.329C90.3617 475.189 79.6939 475.075 78.9217 472.329C76.362 462.705 78.9217 385.857 78.9217 385.857" fill="white"/>
<path d="M73.8023 455.055C73.216 439.468 71.0853 367.825 80.0371 344.087C80.0371 344.087 88.4598 333.39 116.96 333.39C145.46 333.39 154.04 353.625 154.04 353.625C154.04 353.625 155.269 386.357 154.04 470.885C154.04 473.745 143.372 473.645 142.6 470.885C140.04 461.275 142.6 384.413 142.6 384.413L136.88 454.34C136.859 454.574 136.79 454.802 136.678 455.009C136.566 455.216 136.413 455.398 136.229 455.544C136.044 455.69 135.831 455.797 135.604 455.857C135.377 455.918 135.139 455.932 134.906 455.898C125.911 454.468 86.2862 448.906 75.8043 456.056C75.6144 456.178 75.396 456.248 75.1705 456.261C74.945 456.273 74.7202 456.226 74.5183 456.125C74.3163 456.024 74.1441 455.872 74.0186 455.685C73.893 455.497 73.8185 455.28 73.8023 455.055Z" fill="black"/>
<path d="M142.843 471.314L153.696 471.686V477.105L142.843 476.547V471.314Z" fill="black"/>
<path d="M135.492 455.97L134.634 461.69C134.634 461.69 90.4046 452.052 76.076 462.319L75.218 455.984C75.218 455.984 86.2862 445.774 135.492 455.97Z" fill="black"/>
<path opacity="0.4" d="M73.8023 455.055C73.216 439.468 71.0853 367.825 80.0371 344.087C80.0371 344.087 88.4598 333.39 116.96 333.39C145.46 333.39 154.04 353.625 154.04 353.625C154.04 353.625 155.269 386.357 154.04 470.885C154.04 473.745 143.372 473.645 142.6 470.885C140.04 461.275 142.6 384.413 142.6 384.413L136.88 454.34C136.859 454.574 136.79 454.802 136.678 455.009C136.566 455.216 136.413 455.398 136.229 455.544C136.044 455.69 135.831 455.797 135.604 455.857C135.377 455.918 135.139 455.932 134.906 455.898C125.911 454.468 86.2862 448.906 75.8043 456.056C75.6144 456.178 75.396 456.248 75.1705 456.261C74.945 456.273 74.7202 456.226 74.5183 456.125C74.3163 456.024 74.1441 455.872 74.0186 455.685C73.893 455.497 73.8185 455.28 73.8023 455.055Z" fill="white"/>
<path opacity="0.2" d="M142.642 384.413C142.642 384.413 143.272 362.219 154.082 353.625C154.04 353.625 140.569 359.416 142.642 384.413Z" fill="black"/>
<path opacity="0.2" d="M110.21 335.95C110.21 335.95 97.1971 343.1 95.1236 440.526C95.1236 440.526 89.4608 342.242 110.21 335.95Z" fill="black"/>
</svg>
