<svg width="715" height="715" viewBox="0 0 715 715" fill="none" xmlns="http://www.w3.org/2000/svg">
<path d="M616.573 419.019H610.51H336.708H330.645V431.145H336.708V554.411H610.51V431.145H616.573V419.019Z" fill="white"/>
<path opacity="0.5" d="M616.573 419.019H610.51H336.708H330.645V431.145H336.708V554.411H610.51V431.145H616.573V419.019Z" fill="white"/>
<path d="M344.029 483.426H418.718V443.529H344.029V483.426ZM345.545 445.045H417.202V481.91H345.545V445.045Z" fill="white"/>
<path d="M436.779 483.426H511.454V443.529H436.779V483.426ZM438.295 445.045H509.938V481.91H438.295V445.045Z" fill="white"/>
<path d="M529.515 443.529V483.426H604.189V443.529H529.515ZM602.673 481.91H531.03V445.045H602.673V481.91Z" fill="white"/>
<path d="M344.029 536.979H418.718V497.068H344.029V536.979ZM345.545 498.584H417.202V535.464H345.545V498.584Z" fill="white"/>
<path d="M436.779 536.979H511.454V497.068H436.779V536.979ZM438.295 498.584H509.938V535.464H438.295V498.584Z" fill="white"/>
<path d="M529.515 536.979H604.189V497.068H529.515V536.979ZM531.03 498.584H602.673V535.464H531.03V498.584Z" fill="white"/>
<path d="M382.167 468.525C388.865 468.525 394.294 466.489 394.294 463.978C394.294 461.466 388.865 459.43 382.167 459.43C375.47 459.43 370.041 461.466 370.041 463.978C370.041 466.489 375.47 468.525 382.167 468.525Z" fill="white"/>
<path d="M474.46 468.525C481.157 468.525 486.586 466.489 486.586 463.978C486.586 461.466 481.157 459.43 474.46 459.43C467.762 459.43 462.333 461.466 462.333 463.978C462.333 466.489 467.762 468.525 474.46 468.525Z" fill="white"/>
<path d="M569.44 468.525C576.137 468.525 581.567 466.489 581.567 463.978C581.567 461.466 576.137 459.43 569.44 459.43C562.743 459.43 557.314 461.466 557.314 463.978C557.314 466.489 562.743 468.525 569.44 468.525Z" fill="white"/>
<path d="M382.167 512.984C375.475 512.984 370.055 515.015 370.055 517.531C370.055 520.048 375.475 522.079 382.167 522.079C388.86 522.079 394.294 520.048 394.294 517.531C394.294 515.015 388.874 512.984 382.167 512.984Z" fill="white"/>
<path d="M474.46 512.984C467.767 512.984 462.348 515.015 462.348 517.531C462.348 520.048 467.767 522.079 474.46 522.079C481.152 522.079 486.586 520.048 486.586 517.531C486.586 515.015 481.166 512.984 474.46 512.984Z" fill="white"/>
<path d="M569.44 512.984C562.748 512.984 557.314 515.015 557.314 517.531C557.314 520.048 562.748 522.079 569.44 522.079C576.133 522.079 581.567 520.048 581.567 517.531C581.567 515.015 576.133 512.984 569.44 512.984Z" fill="white"/>
<path d="M226.455 408.437C220.935 416.616 213.242 427.27 209.137 435.821C210.696 430.187 212.226 424.867 213.613 420.091C215.715 415.973 221.35 405.534 227.913 398.641C236.164 389.804 239.697 384.141 235.249 383.64C232.175 383.297 223.166 395.295 217.517 407.221C218.747 403.146 219.719 400.071 220.306 398.212C220.577 397.397 220.835 396.482 221.092 395.524C226.939 387.357 232.26 378.827 237.022 369.984C245.359 354.397 248.048 339.696 242.485 346.031C237.366 351.851 228.457 380.78 221.393 394.408C221.979 392.063 222.551 389.46 223.051 386.901C224.052 384.427 225.368 381.91 226.112 379.622C227.27 376.119 228.285 372.558 229.1 368.954C230.443 363.333 231.125 357.574 231.131 351.794C231.273 345.006 229.423 338.325 225.811 332.575C224.853 331.145 219.004 322.394 217.231 326.855C217.003 327.601 216.958 328.391 217.103 329.157C217.961 336.608 220.663 343.457 222.336 350.708C224.839 361.561 223.18 379.794 222.336 387.544C222.022 388.76 221.621 390.29 221.149 392.049C222.308 378.535 216.459 362.534 211.039 359.745C204.333 356.285 210.911 369.869 216.087 381.724C218.545 386.917 219.698 392.63 219.448 398.369C218.39 402.273 217.174 406.649 215.916 411.082C215.673 411.697 215.429 412.298 215.201 412.898C215.78 410.004 216.02 407.053 215.916 404.104C215.415 396.353 206.635 380.838 200.801 383.026C194.966 385.213 204.847 393.407 210.124 402.931C212.821 408.154 213.849 414.079 213.07 419.905C213.07 420.248 212.956 420.592 212.913 420.935C212.312 422.951 211.711 424.91 211.125 426.755C209.695 431.045 208.48 435.163 207.264 439.139C208.758 433.376 209.413 427.428 209.209 421.478C208.48 410.11 201.83 399.385 196.339 397.926C190.848 396.467 201.33 414.986 204.847 425.396C206.76 431.477 207.085 437.945 205.791 444.187C204.09 449.821 202.488 455.369 200.843 461.261C201.308 453.562 201.146 445.839 200.357 438.166C199.285 425.525 191.777 417.446 186.586 417.774C181.395 418.103 186.815 425.282 194.28 440.654C198.22 448.726 199.975 457.69 199.371 466.652C198.698 469.14 197.941 471.685 197.311 474.345C196.511 477.377 195.881 480.666 195.324 484.041C194.566 481.038 193.45 476.633 192.149 471.771C190.634 466.392 189.534 460.903 188.86 455.355C188.159 448.906 186.458 440.869 180.137 437.509C179.709 437.207 179.221 437.003 178.705 436.912C178.19 436.821 177.661 436.844 177.156 436.981C176.651 437.117 176.182 437.364 175.782 437.702C175.383 438.04 175.063 438.463 174.846 438.939C174.253 440.318 174.117 441.852 174.46 443.314C175.3 447.697 176.743 451.941 178.75 455.927C177.498 458.304 176.929 460.982 177.105 463.663C177.105 464.678 177.191 465.679 177.263 466.666C176.705 465.651 176.176 464.707 175.675 463.806C174.77 462.292 173.653 460.914 172.358 459.716C172.681 457.347 172.843 454.958 172.844 452.566C172.844 449.42 169.169 441.441 165.851 447.361C164.536 449.721 164.779 454.383 164.65 457.471C163.749 458.315 163.478 460.06 164.235 462.819C163.483 469.984 163.86 477.222 165.351 484.269L164.221 482.268C162.596 473.997 161.64 465.609 161.361 457.185C160.818 443.3 163.02 431.86 159.245 427.57C155.47 423.28 153.339 438.367 154.955 454.74C155.722 462.247 157.722 469.577 160.875 476.433C157.157 469.755 153.482 462.948 150.007 456.413C148.577 452.895 145.031 443.429 145.903 433.819C147.004 421.693 147.805 411.783 143.2 404.962C138.596 398.141 137.637 402.559 139.897 416.774C141.441 426.54 143.086 439.582 145.931 448.634C143.229 443.443 140.698 438.509 138.438 434.034C137.151 429.586 134.148 418.118 134.148 408.608C134.148 396.525 132.847 390.018 129.272 392.635C126.784 394.494 128.385 409.409 132.389 421.964C130.516 418.146 129.1 415.215 128.285 413.484C127.913 412.698 127.499 411.869 127.027 410.982C125.749 401.027 123.838 391.164 121.307 381.452C116.774 364.292 108.709 351.794 108.952 360.203C109.18 367.953 122.422 395.18 126.555 409.967C125.382 407.85 124.024 405.562 122.651 403.346C121.693 400.858 120.935 398.126 119.92 395.938C118.361 392.592 116.688 389.289 114.815 386.1C111.961 381.062 108.525 376.378 104.576 372.143C100.043 367.084 94.1271 363.464 87.5588 361.733C85.8714 361.332 75.6326 358.873 77.3772 363.449C77.7113 364.142 78.2006 364.749 78.8072 365.222C84.5272 370.084 91.1624 373.244 97.3972 377.406C106.635 383.626 117.861 398.083 122.494 404.347L124.696 408.465C116.33 397.797 101.13 390.09 95.2665 391.749C88.0021 393.793 102.088 399.242 113.957 404.375C119.299 406.492 124.042 409.885 127.77 414.257C129.658 417.817 131.76 421.85 133.862 425.954C134.105 426.569 134.334 427.17 134.592 427.756C133.036 425.248 131.194 422.93 129.1 420.849C123.38 415.529 106.435 410.181 103.675 415.758C100.915 421.335 113.685 420.577 124.067 423.938C129.662 425.886 134.514 429.524 137.952 434.348L138.538 435.221C139.482 437.108 140.369 438.938 141.212 440.697C143.157 444.787 145.016 448.634 146.847 452.381C144.009 447.125 140.425 442.309 136.207 438.081C127.913 430.273 115.73 426.969 110.682 429.686C105.634 432.403 125.983 438.753 135.65 443.986C141.197 447.123 145.85 451.627 149.163 457.071C151.766 462.348 154.383 467.51 157.2 472.93C152.254 466.987 146.836 461.454 140.998 456.384C131.589 447.89 120.578 447.118 117.017 450.879C113.456 454.64 122.308 456.213 138.238 462.319C146.62 465.537 154.015 470.89 159.688 477.849C160.889 480.122 162.119 482.453 163.435 484.87C165.009 487.774 166.732 490.595 168.597 493.321C165.994 491.634 162.162 489.174 157.901 486.515C153.122 483.621 148.575 480.36 144.301 476.762C139.382 472.472 132.647 467.81 125.711 469.612C125.196 469.69 124.704 469.879 124.27 470.167C123.835 470.454 123.469 470.834 123.197 471.278C122.924 471.722 122.752 472.22 122.693 472.737C122.633 473.255 122.687 473.779 122.851 474.274C123.356 475.688 124.304 476.902 125.554 477.734C132.075 482.797 140.841 485.228 148.434 488.202C155.393 490.943 162.525 493.221 169.784 495.023C171.586 497.611 173.473 500.157 175.347 502.602L171.943 502.702C167.911 502.817 149.721 494.58 140.483 491.92C131.245 489.26 122.608 494.294 132.289 499.499C141.97 504.704 168.297 503.546 168.297 503.546L175.89 503.36C177.677 505.648 179.436 507.807 181.081 509.795H145.016V519.805H152.166L157.886 555.383H205.92L211.64 519.834H218.79V509.824H194.88C194.687 505.502 194.802 501.173 195.224 496.868C196.816 495.245 198.586 493.806 200.5 492.578C210.996 485.328 228.786 484.727 233.519 470.77C234.663 467.395 233.376 463.077 229.343 463.263C226.483 463.406 223.38 465.937 221.578 468.025C215.572 474.96 211.054 482.153 203.246 487.401C202.888 487.644 197.969 491.563 195.524 493.994C195.796 491.72 196.139 489.289 196.582 486.672C198.469 483.326 200.621 480.136 203.017 477.134C209.409 469.212 219.133 464.564 226.04 456.999C228.156 454.683 230.945 446.36 224.481 448.419C221.621 449.349 218.218 453.696 215.973 455.698C209.624 461.418 203.103 467.51 198.956 475.032C199.127 474.288 199.313 473.602 199.485 472.787C203.948 465.647 208.968 458.871 214.5 452.524C223.681 442.07 233.09 435.235 233.247 429.529C233.405 423.823 221.564 433.39 211.511 446.489C206.951 452.498 203.414 459.219 201.044 466.38C202.888 458.959 204.847 451.48 206.764 444.301C208.079 440.726 211.983 431.431 219.176 424.982C228.257 416.874 235.607 410.181 236.908 402.102C238.209 394.022 234.52 396.496 226.455 408.437ZM175.675 500.414C174.322 498.565 172.892 496.544 171.385 494.351C170.485 490.616 169.887 486.814 169.598 482.982C169.402 479.701 169.551 476.409 170.041 473.158C172.478 476.179 175.07 479.072 177.806 481.824C177.741 484.688 177.391 487.538 176.762 490.333C176.719 490.747 175.804 496.968 175.675 500.414ZM183.455 509.824C181.61 507.864 179.594 505.534 177.406 502.674C177.461 500.405 177.772 498.151 178.335 495.953C179.211 492.488 180.467 489.131 182.082 485.943C185.471 489.16 187.959 491.305 187.959 491.305L193.679 496.31C193.236 501.315 192.978 505.991 192.821 509.795L183.455 509.824ZM193.751 495.438L191.191 493.193C189.761 491.906 187.187 486.929 184.384 481.209C185.588 478.796 186.648 476.312 187.559 473.773C190.59 479.393 193.279 483.783 194.866 486.114C194.48 489.232 194.051 492.378 193.751 495.438Z" fill="white"/>
<path opacity="0.5" d="M226.455 408.437C220.935 416.616 213.242 427.27 209.137 435.821C210.696 430.187 212.226 424.867 213.613 420.091C215.715 415.973 221.35 405.534 227.913 398.641C236.164 389.804 239.697 384.141 235.249 383.64C232.175 383.297 223.166 395.295 217.517 407.221C218.747 403.146 219.719 400.071 220.306 398.212C220.577 397.397 220.835 396.482 221.092 395.524C226.939 387.357 232.26 378.827 237.022 369.984C245.359 354.397 248.048 339.696 242.485 346.031C237.366 351.851 228.457 380.78 221.393 394.408C221.979 392.063 222.551 389.46 223.051 386.901C224.052 384.427 225.368 381.91 226.112 379.622C227.27 376.119 228.285 372.558 229.1 368.954C230.443 363.333 231.125 357.574 231.131 351.794C231.273 345.006 229.423 338.325 225.811 332.575C224.853 331.145 219.004 322.394 217.231 326.855C217.003 327.601 216.958 328.391 217.103 329.157C217.961 336.608 220.663 343.457 222.336 350.708C224.839 361.561 223.18 379.794 222.336 387.544C222.022 388.76 221.621 390.29 221.149 392.049C222.308 378.535 216.459 362.534 211.039 359.745C204.333 356.285 210.911 369.869 216.087 381.724C218.545 386.917 219.698 392.63 219.448 398.369C218.39 402.273 217.174 406.649 215.916 411.082C215.673 411.697 215.429 412.298 215.201 412.898C215.78 410.004 216.02 407.053 215.916 404.104C215.415 396.353 206.635 380.838 200.801 383.026C194.966 385.213 204.847 393.407 210.124 402.931C212.821 408.154 213.849 414.079 213.07 419.905C213.07 420.248 212.956 420.592 212.913 420.935C212.312 422.951 211.711 424.91 211.125 426.755C209.695 431.045 208.48 435.163 207.264 439.139C208.758 433.376 209.413 427.428 209.209 421.478C208.48 410.11 201.83 399.385 196.339 397.926C190.848 396.467 201.33 414.986 204.847 425.396C206.76 431.477 207.085 437.945 205.791 444.187C204.09 449.821 202.488 455.369 200.843 461.261C201.308 453.562 201.146 445.839 200.357 438.166C199.285 425.525 191.777 417.446 186.586 417.774C181.395 418.103 186.815 425.282 194.28 440.654C198.22 448.726 199.975 457.69 199.371 466.652C198.698 469.14 197.941 471.685 197.311 474.345C196.511 477.377 195.881 480.666 195.324 484.041C194.566 481.038 193.45 476.633 192.149 471.771C190.634 466.392 189.534 460.903 188.86 455.355C188.159 448.906 186.458 440.869 180.137 437.509C179.709 437.207 179.221 437.003 178.705 436.912C178.19 436.821 177.661 436.844 177.156 436.981C176.651 437.117 176.182 437.364 175.782 437.702C175.383 438.04 175.063 438.463 174.846 438.939C174.253 440.318 174.117 441.852 174.46 443.314C175.3 447.697 176.743 451.941 178.75 455.927C177.498 458.304 176.929 460.982 177.105 463.663C177.105 464.678 177.191 465.679 177.263 466.666C176.705 465.651 176.176 464.707 175.675 463.806C174.77 462.292 173.653 460.914 172.358 459.716C172.681 457.347 172.843 454.958 172.844 452.566C172.844 449.42 169.169 441.441 165.851 447.361C164.536 449.721 164.779 454.383 164.65 457.471C163.749 458.315 163.478 460.06 164.235 462.819C163.483 469.984 163.86 477.222 165.351 484.269L164.221 482.268C162.596 473.997 161.64 465.609 161.361 457.185C160.818 443.3 163.02 431.86 159.245 427.57C155.47 423.28 153.339 438.367 154.955 454.74C155.722 462.247 157.722 469.577 160.875 476.433C157.157 469.755 153.482 462.948 150.007 456.413C148.577 452.895 145.031 443.429 145.903 433.819C147.004 421.693 147.805 411.783 143.2 404.962C138.596 398.141 137.637 402.559 139.897 416.774C141.441 426.54 143.086 439.582 145.931 448.634C143.229 443.443 140.698 438.509 138.438 434.034C137.151 429.586 134.148 418.118 134.148 408.608C134.148 396.525 132.847 390.018 129.272 392.635C126.784 394.494 128.385 409.409 132.389 421.964C130.516 418.146 129.1 415.215 128.285 413.484C127.913 412.698 127.499 411.869 127.027 410.982C125.749 401.027 123.838 391.164 121.307 381.452C116.774 364.292 108.709 351.794 108.952 360.203C109.18 367.953 122.422 395.18 126.555 409.967C125.382 407.85 124.024 405.562 122.651 403.346C121.693 400.858 120.935 398.126 119.92 395.938C118.361 392.592 116.688 389.289 114.815 386.1C111.961 381.062 108.525 376.378 104.576 372.143C100.043 367.084 94.1271 363.464 87.5588 361.733C85.8714 361.332 75.6326 358.873 77.3772 363.449C77.7113 364.142 78.2006 364.749 78.8072 365.222C84.5272 370.084 91.1624 373.244 97.3972 377.406C106.635 383.626 117.861 398.083 122.494 404.347L124.696 408.465C116.33 397.797 101.13 390.09 95.2665 391.749C88.0021 393.793 102.088 399.242 113.957 404.375C119.299 406.492 124.042 409.885 127.77 414.257C129.658 417.817 131.76 421.85 133.862 425.954C134.105 426.569 134.334 427.17 134.592 427.756C133.036 425.248 131.194 422.93 129.1 420.849C123.38 415.529 106.435 410.181 103.675 415.758C100.915 421.335 113.685 420.577 124.067 423.938C129.662 425.886 134.514 429.524 137.952 434.348L138.538 435.221C139.482 437.108 140.369 438.938 141.212 440.697C143.157 444.787 145.016 448.634 146.847 452.381C144.009 447.125 140.425 442.309 136.207 438.081C127.913 430.273 115.73 426.969 110.682 429.686C105.634 432.403 125.983 438.753 135.65 443.986C141.197 447.123 145.85 451.627 149.163 457.071C151.766 462.348 154.383 467.51 157.2 472.93C152.254 466.987 146.836 461.454 140.998 456.384C131.589 447.89 120.578 447.118 117.017 450.879C113.456 454.64 122.308 456.213 138.238 462.319C146.62 465.537 154.015 470.89 159.688 477.849C160.889 480.122 162.119 482.453 163.435 484.87C165.009 487.774 166.732 490.595 168.597 493.321C165.994 491.634 162.162 489.174 157.901 486.515C153.122 483.621 148.575 480.36 144.301 476.762C139.382 472.472 132.647 467.81 125.711 469.612C125.196 469.69 124.704 469.879 124.27 470.167C123.835 470.454 123.469 470.834 123.197 471.278C122.924 471.722 122.752 472.22 122.693 472.737C122.633 473.255 122.687 473.779 122.851 474.274C123.356 475.688 124.304 476.902 125.554 477.734C132.075 482.797 140.841 485.228 148.434 488.202C155.393 490.943 162.525 493.221 169.784 495.023C171.586 497.611 173.473 500.157 175.347 502.602L171.943 502.702C167.911 502.817 149.721 494.58 140.483 491.92C131.245 489.26 122.608 494.294 132.289 499.499C141.97 504.704 168.297 503.546 168.297 503.546L175.89 503.36C177.677 505.648 179.436 507.807 181.081 509.795H145.016V519.805H152.166L157.886 555.383H205.92L211.64 519.834H218.79V509.824H194.88C194.687 505.502 194.802 501.173 195.224 496.868C196.816 495.245 198.586 493.806 200.5 492.578C210.996 485.328 228.786 484.727 233.519 470.77C234.663 467.395 233.376 463.077 229.343 463.263C226.483 463.406 223.38 465.937 221.578 468.025C215.572 474.96 211.054 482.153 203.246 487.401C202.888 487.644 197.969 491.563 195.524 493.994C195.796 491.72 196.139 489.289 196.582 486.672C198.469 483.326 200.621 480.136 203.017 477.134C209.409 469.212 219.133 464.564 226.04 456.999C228.156 454.683 230.945 446.36 224.481 448.419C221.621 449.349 218.218 453.696 215.973 455.698C209.624 461.418 203.103 467.51 198.956 475.032C199.127 474.288 199.313 473.602 199.485 472.787C203.948 465.647 208.968 458.871 214.5 452.524C223.681 442.07 233.09 435.235 233.247 429.529C233.405 423.823 221.564 433.39 211.511 446.489C206.951 452.498 203.414 459.219 201.044 466.38C202.888 458.959 204.847 451.48 206.764 444.301C208.079 440.726 211.983 431.431 219.176 424.982C228.257 416.874 235.607 410.181 236.908 402.102C238.209 394.022 234.52 396.496 226.455 408.437ZM175.675 500.414C174.322 498.565 172.892 496.544 171.385 494.351C170.485 490.616 169.887 486.814 169.598 482.982C169.402 479.701 169.551 476.409 170.041 473.158C172.478 476.179 175.07 479.072 177.806 481.824C177.741 484.688 177.391 487.538 176.762 490.333C176.719 490.747 175.804 496.968 175.675 500.414ZM183.455 509.824C181.61 507.864 179.594 505.534 177.406 502.674C177.461 500.405 177.772 498.151 178.335 495.953C179.211 492.488 180.467 489.131 182.082 485.943C185.471 489.16 187.959 491.305 187.959 491.305L193.679 496.31C193.236 501.315 192.978 505.991 192.821 509.795L183.455 509.824ZM193.751 495.438L191.191 493.193C189.761 491.906 187.187 486.929 184.384 481.209C185.588 478.796 186.648 476.312 187.559 473.773C190.59 479.393 193.279 483.783 194.866 486.114C194.48 489.232 194.051 492.378 193.751 495.438Z" fill="white"/>
<path d="M234.506 591.562C267.66 591.562 294.537 585.743 294.537 578.564C294.537 571.385 267.66 565.565 234.506 565.565C201.351 565.565 174.474 571.385 174.474 578.564C174.474 585.743 201.351 591.562 234.506 591.562Z" fill="white"/>
<path opacity="0.5" d="M234.506 591.562C267.66 591.562 294.537 585.743 294.537 578.564C294.537 571.385 267.66 565.565 234.506 565.565C201.351 565.565 174.474 571.385 174.474 578.564C174.474 585.743 201.351 591.562 234.506 591.562Z" fill="white"/>
<path d="M452.323 591.562C485.478 591.562 512.355 585.743 512.355 578.564C512.355 571.385 485.478 565.565 452.323 565.565C419.169 565.565 392.292 571.385 392.292 578.564C392.292 585.743 419.169 591.562 452.323 591.562Z" fill="white"/>
<path opacity="0.5" d="M452.323 591.562C485.478 591.562 512.355 585.743 512.355 578.564C512.355 571.385 485.478 565.565 452.323 565.565C419.169 565.565 392.292 571.385 392.292 578.564C392.292 585.743 419.169 591.562 452.323 591.562Z" fill="white"/>
<path d="M351.566 341.241C353.984 342.755 356.052 344.769 357.629 347.147C359.431 350.421 366.981 352.552 366.981 352.552H369.769L370.913 365.665C368.039 365.759 365.173 366.036 362.333 366.495C360.66 366.864 358.956 367.079 357.243 367.138C357.243 367.138 348.391 355.999 346.918 353.868C345.445 351.737 345.288 347.318 345.946 346.489C346.603 345.66 351.566 341.241 351.566 341.241Z" fill="white" stroke="black" stroke-width="0.75" stroke-linecap="round" stroke-linejoin="round"/>
<path d="M339.768 363.535C339.768 363.535 334.849 365.179 336.98 366.495C338.075 366.982 339.295 367.117 340.471 366.881C341.646 366.646 342.72 366.051 343.543 365.179C344.358 363.863 341.77 362.877 339.768 363.535Z" fill="white" stroke="black" stroke-width="0.75" stroke-linecap="round" stroke-linejoin="round"/>
<path d="M334.363 348.462C334.363 348.462 348.949 343.214 349.606 343.7C350.264 344.187 351.408 348.62 351.408 348.62C351.408 348.62 361.561 354.683 362.391 356.985C363.048 360.559 363.048 364.222 362.391 367.796C361.89 368.625 359.116 369.598 358.101 369.927C357.077 370.18 356.007 370.18 354.983 369.927C354.497 369.769 346.618 364.207 346.618 364.207C346.618 364.207 338.595 365.022 336.794 365.022C334.992 365.022 333.176 364.864 333.176 364.864L334.363 348.462Z" fill="white" stroke="black" stroke-width="0.75" stroke-linecap="round" stroke-linejoin="round"/>
<path d="M352.552 354.64C352.552 354.64 357.958 357.6 359.116 359.23C360.274 360.861 361.404 367.925 361.404 367.925" stroke="black" stroke-width="0.75" stroke-linecap="round" stroke-linejoin="round"/>
<path d="M350.264 357.643C350.264 357.643 356.656 361.075 357.3 362.719C357.912 364.818 358.389 366.953 358.73 369.112" stroke="black" stroke-width="0.75" stroke-linecap="round" stroke-linejoin="round"/>
<path d="M353.539 344.358C353.539 344.358 346.489 352.223 344.845 353.053C343.2 353.882 342.885 352.881 341.985 352.223C341.084 351.565 347.233 342.728 347.075 342.07C347.935 341.436 348.981 341.107 350.048 341.136C351.116 341.164 352.143 341.549 352.967 342.228" fill="white"/>
<path d="M353.539 344.358C353.539 344.358 346.489 352.223 344.845 353.053C343.2 353.882 342.885 352.881 341.985 352.223C341.084 351.565 347.233 342.728 347.075 342.07C347.935 341.436 348.981 341.107 350.048 341.136C351.116 341.164 352.143 341.549 352.967 342.228" stroke="black" stroke-width="0.75" stroke-linecap="round" stroke-linejoin="round"/>
<path d="M343.2 361.79L342.943 362.677C342.425 364.244 342.122 365.875 342.042 367.524C342.371 368.182 344.344 368.84 345.002 367.853C345.66 366.866 346.961 361.962 346.632 361.304C346.303 360.646 345.016 357.8 343.2 361.79Z" fill="white" stroke="black" stroke-width="0.75" stroke-linecap="round" stroke-linejoin="round"/>
<path d="M349.435 361.075C348.92 361.719 346.575 368.783 347.147 369.655C347.719 370.527 350.093 370.813 350.75 369.827C351.408 368.84 353.696 362.677 353.038 361.247C352.381 359.817 351.78 358.287 349.435 361.075Z" fill="white" stroke="black" stroke-width="0.75" stroke-linecap="round" stroke-linejoin="round"/>
<path d="M353.539 362.548L353.296 363.12C352.581 364.822 350.536 369.955 351.079 370.913C351.623 371.871 354.84 372.343 355.498 370.756C356.156 369.169 358.458 363.048 356.928 361.575C356.688 361.29 356.371 361.08 356.014 360.971C355.657 360.863 355.277 360.859 354.918 360.962C354.56 361.065 354.239 361.27 353.994 361.551C353.749 361.832 353.591 362.179 353.539 362.548Z" fill="white" stroke="black" stroke-width="0.75" stroke-linecap="round" stroke-linejoin="round"/>
<path d="M240.726 224.71C240.726 224.71 241.584 229.987 240.598 232.089C239.611 234.191 238.138 238.596 238.138 238.596L259.903 257.901C259.903 257.901 266.538 249.535 267.768 247.891C268.997 246.246 270.628 244.072 270.628 244.072C270.628 244.072 259.931 237.308 257.758 232.389C255.584 227.47 256.656 221.207 252.038 220.22C247.419 219.233 242.085 221.764 240.726 224.71Z" fill="white" stroke="black" stroke-width="0.75" stroke-linecap="round" stroke-linejoin="round"/>
<path d="M282.153 192.135C282.153 192.135 291.248 192.006 289.403 183.283C287.559 174.56 266.295 172.701 262.362 176.762C258.43 180.824 259.045 182.482 259.045 182.482C259.045 182.482 240.726 181.996 236.05 191.949C231.374 201.902 233.476 214.829 236.551 221.578C239.625 228.328 244.787 229.072 247.49 228.214C250.193 227.356 252.152 225.754 252.152 223.294C252.152 220.835 253.882 214.943 255.97 216.416C258.058 217.889 260.26 218.375 263.964 214.815C267.667 211.254 272.93 206.821 270.971 203.26C269.012 199.7 265.68 199.571 267.524 197.969C269.369 196.368 279.822 195.109 280.795 194.037C281.336 193.471 281.794 192.831 282.153 192.135Z" fill="black" stroke="black" stroke-width="0.75" stroke-linecap="round" stroke-linejoin="round"/>
<path d="M281.71 186.901C281.71 186.901 282.997 189.489 270.756 192.707C258.516 195.924 237.866 196.568 237.251 204.304" stroke="white" stroke-width="0.75" stroke-linecap="round" stroke-linejoin="round"/>
<path d="M257.901 201.73C257.901 201.73 243.086 206.235 239.854 211.397C236.622 216.559 241.155 221.049 241.155 221.049" stroke="white" stroke-width="0.75" stroke-linecap="round" stroke-linejoin="round"/>
<path d="M282.153 192.135C282.153 192.135 285.6 203.804 285.6 206.149C285.6 208.494 283.14 210.811 284.241 213.399C285.342 215.987 289.032 221.021 289.032 222.622C289.032 224.224 283.626 225.811 283.626 225.811C283.626 225.811 279.079 242.971 278.092 245.116C277.105 247.261 273.802 247.576 269.855 246.546C265.909 245.517 255.484 240.026 252.695 235.736C249.907 231.446 251.952 224.167 251.952 224.167C251.952 224.167 246.232 221.593 245.073 216.187C243.915 210.782 248.148 207.207 251.837 208.437C252.874 208.744 253.836 209.263 254.661 209.962C255.485 210.662 256.155 211.525 256.628 212.498C256.628 212.498 257 213.842 258.058 213.485C259.116 213.127 260.146 210.896 261.132 210.768C262.119 210.639 269.126 208.194 268.282 205.491C267.439 202.788 258.687 202.631 259.302 199.585C259.917 196.539 282.153 192.135 282.153 192.135Z" fill="white" stroke="black" stroke-width="0.75" stroke-linecap="round" stroke-linejoin="round"/>
<path d="M271.214 223.352L267.653 225.811" stroke="black" stroke-width="0.75" stroke-linecap="round" stroke-linejoin="round"/>
<path d="M269.855 224.953C269.855 224.953 270.971 227.899 275.575 228.886L269.855 224.953Z" fill="white"/>
<path d="M269.855 224.953C269.855 224.953 270.971 227.899 275.575 228.886" stroke="black" stroke-width="0.75" stroke-linecap="round" stroke-linejoin="round"/>
<path d="M269.984 225.811C269.984 225.811 267.896 231.531 270.47 232.818C273.044 234.105 274.16 228.771 274.16 228.771L269.984 225.811Z" fill="black"/>
<path d="M283.869 214.328C283.726 217.317 282.969 219.705 282.182 219.662C281.396 219.619 280.895 217.174 281.052 214.185C281.21 211.197 281.953 208.823 282.74 208.851C283.526 208.88 284.027 211.34 283.869 214.328Z" fill="white" stroke="black" stroke-width="0.75" stroke-linecap="round" stroke-linejoin="round"/>
<path d="M281.052 211.311H255.97" stroke="black" stroke-width="0.75" stroke-linecap="round" stroke-linejoin="round"/>
<path d="M279.322 207.993C279.509 207.323 279.852 206.706 280.321 206.192C280.79 205.678 281.374 205.281 282.025 205.033C284.127 204.419 284.484 205.534 284.484 205.534" fill="white"/>
<path d="M279.322 207.993C279.509 207.323 279.852 206.706 280.321 206.192C280.79 205.678 281.374 205.281 282.025 205.033C284.127 204.419 284.484 205.534 284.484 205.534" stroke="black" stroke-width="0.75" stroke-linecap="round" stroke-linejoin="round"/>
<path d="M194.051 416.316L270.27 414.028C270.27 414.028 275.018 466.795 273.874 467.953C272.73 469.111 197.168 472.243 197.168 472.243C197.168 472.243 191.32 472.658 190.49 470.041C189.661 467.424 194.051 416.316 194.051 416.316Z" fill="white" stroke="black" stroke-width="0.75" stroke-linecap="round" stroke-linejoin="round"/>
<path d="M194.051 416.316C194.051 416.316 186.901 468.597 188.145 470.084C189.389 471.571 195.295 472.644 197.168 472.215C198.884 471.9 194.051 416.316 194.051 416.316Z" fill="white" stroke="black" stroke-width="0.75" stroke-linecap="round" stroke-linejoin="round"/>
<path d="M216.502 559.573C212.312 562.133 210.282 566.452 211.268 569.898C212.255 573.344 212.57 573.673 215.201 574.188C217.832 574.703 229.615 572.872 242.371 570.742C255.126 568.611 256.971 568.125 258.101 566.323C259.231 564.521 261.218 562.719 248.591 560.603C235.964 558.487 234.82 556.17 234.82 556.17C234.82 556.17 223.223 555.469 216.502 559.573Z" fill="white" stroke="black" stroke-width="0.75" stroke-linecap="round" stroke-linejoin="round"/>
<path d="M257.758 562.977C256.9 564.736 254.211 567.896 245.76 568.911C236.822 569.984 220.649 571.6 212.112 572.329C212.698 573.544 213.413 573.759 215.201 574.159C217.818 574.645 229.615 572.844 242.371 570.713C255.126 568.582 256.971 568.096 258.101 566.294C258.83 565.207 259.817 564.121 257.758 562.977Z" fill="black" stroke="black" stroke-width="0.75" stroke-linecap="round" stroke-linejoin="round"/>
<path d="M239.125 563.992C239.125 563.992 252.238 570.227 259.459 571.7C266.681 573.173 268.468 573.344 267.653 575.632C266.838 577.92 266.667 578.592 255.684 581.209C244.702 583.826 232.733 580.88 227.485 579.894C222.236 578.907 220.606 580.394 218.318 579.407C216.03 578.421 216.674 573.501 216.674 573.501L239.125 563.992Z" fill="white" stroke="black" stroke-width="0.75" stroke-linecap="round" stroke-linejoin="round"/>
<path d="M255.684 581.209C264.908 579.007 266.495 578.192 267.253 576.619C257.243 580.909 243.972 579.136 233.848 577.977C227.327 577.219 221.107 576.547 216.688 576.19C216.665 576.825 216.807 577.455 217.1 578.019C217.393 578.583 217.828 579.062 218.361 579.407C220.649 580.394 222.294 578.921 227.527 579.894C232.761 580.866 244.702 583.826 255.684 581.209Z" fill="black" stroke="black" stroke-width="0.75" stroke-linecap="round" stroke-linejoin="round"/>
<path d="M224.381 443.529C224.381 443.529 222.079 462.205 217.489 470.241C212.898 478.278 206.678 483.84 205.691 495.481C204.704 507.121 207.979 554.654 208.308 558.758C208.637 562.862 206.878 564.164 208.637 566.781C209.739 568.386 210.943 569.919 212.241 571.371L217.66 566.623C217.66 566.623 221.593 553.996 220.606 529.901C219.619 505.805 219.791 489.589 224.052 473.516C228.314 457.443 229.129 453.196 227.156 446.961C225.182 440.726 224.381 443.529 224.381 443.529Z" fill="black" stroke="black" stroke-width="0.75" stroke-linecap="round" stroke-linejoin="round"/>
<path d="M214.057 404.804C214.057 404.804 219.462 415 220.692 417.674C221.922 420.348 224.739 451.365 222.537 461.69C220.335 472.014 211.755 489.56 212.527 504.962C213.299 520.363 213.957 561.189 213.957 561.675C213.464 564.11 213.464 566.619 213.957 569.054C214.772 573.473 217.231 574.774 217.231 574.774C221.405 572.832 225.734 571.243 230.173 570.027C238.21 567.724 240.498 564.45 240.498 564.45C239.796 562.326 238.975 560.245 238.038 558.215C236.894 555.927 234.935 552.323 235.264 551.165C235.593 550.007 237.723 512.326 241.985 499.871C246.246 487.415 248.691 474.302 252.309 462.819C255.927 451.337 264.55 420.577 264.55 412.712V403.046L213.413 402.059L214.057 404.804Z" fill="black" stroke="black" stroke-width="0.75" stroke-linecap="round" stroke-linejoin="round"/>
<path d="M218.275 478.249C216.845 482.639 215.258 487.558 214.057 491.462C211.197 500.757 214.057 552.952 214.057 552.952C214.37 556.757 214.46 560.577 214.328 564.392C214.057 569.126 214.328 570.999 215.501 572.272" stroke="white" stroke-width="0.75" stroke-linecap="round" stroke-linejoin="round"/>
<path d="M221.922 467.152C221.922 467.152 220.863 470.313 219.448 474.646" stroke="white" stroke-width="0.75" stroke-linecap="round" stroke-linejoin="round"/>
<path d="M236.551 234.177C236.551 234.177 242.271 236.136 250.851 243.643C259.431 251.151 268.182 258.272 266.338 260.803C264.493 263.335 261.047 272.243 261.047 272.243C261.047 272.243 257.858 266.952 248.391 259.373C238.925 251.794 231.66 244.988 231.66 244.988C231.66 244.988 235.564 235.778 236.551 234.177Z" fill="white" stroke="black" stroke-width="0.75" stroke-linecap="round" stroke-linejoin="round"/>
<path d="M228.929 246.217C228.929 246.217 210.61 259.245 207.479 271.786C204.347 284.327 203.046 290.476 203.303 314.443C203.56 338.41 205.019 353.539 205.019 354.64C205.019 355.741 200.2 400.257 200.2 400.743C200.2 401.229 208.78 409.109 232.775 409.595C249.06 409.699 265.325 408.426 281.395 405.791L270.942 319.491C270.942 319.491 266.881 282.725 262.705 275.847C258.53 268.969 228.929 246.217 228.929 246.217Z" fill="white" stroke="black" stroke-width="0.75" stroke-linecap="round" stroke-linejoin="round"/>
<path d="M239.496 365.837C239.496 365.837 254.74 368.911 265.236 365.093" stroke="black" stroke-width="0.75" stroke-linecap="round" stroke-linejoin="round"/>
<path d="M239.496 370.37C239.496 370.37 254.74 373.444 265.236 369.641" stroke="black" stroke-width="0.75" stroke-linecap="round" stroke-linejoin="round"/>
<path d="M331.731 346.003L335.507 347.805L333.204 364.85L329.443 364.192L331.731 346.003Z" fill="white" stroke="black" stroke-width="0.75" stroke-linecap="round" stroke-linejoin="round"/>
<path d="M245.188 268.64C243.042 269.317 241.12 270.562 239.625 272.243C237.165 275.103 223.895 291.577 224.867 298.798C225.84 306.02 243.1 332.389 248.82 340.597C255.862 350.999 266.005 358.915 277.806 363.22C292.235 368.468 329.772 365.851 329.772 365.851L331.76 345.502C331.76 345.502 311.282 338.953 297.183 334.692C289.341 332.372 281.671 329.505 274.231 326.112C274.231 326.112 270.956 318.075 268.654 316.774C266.352 315.472 266.037 314.643 266.037 314.643C266.037 314.643 261.618 290.547 259.316 282.668C257.014 274.789 253.911 272.844 253.911 272.844" fill="white"/>
<path d="M245.188 268.64C243.042 269.317 241.12 270.562 239.625 272.243C237.165 275.103 223.895 291.577 224.867 298.798C225.84 306.02 243.1 332.389 248.82 340.597C255.862 350.999 266.005 358.915 277.806 363.22C292.235 368.468 329.772 365.851 329.772 365.851L331.76 345.502C331.76 345.502 311.282 338.953 297.183 334.692C289.341 332.372 281.671 329.505 274.231 326.112C274.231 326.112 270.956 318.075 268.654 316.774C266.352 315.472 266.037 314.643 266.037 314.643C266.037 314.643 261.618 290.547 259.316 282.668C257.014 274.789 253.911 272.844 253.911 272.844" stroke="black" stroke-width="0.75" stroke-linecap="round" stroke-linejoin="round"/>
<path d="M436.808 555.77C430.961 559.145 424.883 562.103 418.618 564.621C410.253 567.739 408.279 568.911 409.924 570.684C411.568 572.458 425.825 573.802 433.848 572.114C441.87 570.427 445.002 569.34 448.605 569.498C452.209 569.655 457.185 570.641 458.93 568.182C460.674 565.722 461.389 565.236 460.074 561.132C458.758 557.028 436.808 555.77 436.808 555.77Z" fill="white" stroke="black" stroke-width="0.75" stroke-linecap="round" stroke-linejoin="round"/>
<path d="M433.848 572.157C441.884 570.527 445.002 569.383 448.605 569.54C452.209 569.698 457.185 570.684 458.93 568.225C460.217 566.466 460.918 565.708 460.732 563.935C454.897 563.449 443.643 565.293 430.23 568.225C423.441 569.878 416.402 570.237 409.481 569.283C409.402 569.538 409.403 569.811 409.482 570.066C409.561 570.321 409.715 570.547 409.924 570.713C411.568 572.486 425.825 573.802 433.848 572.157Z" fill="black" stroke="black" stroke-width="0.75" stroke-linecap="round" stroke-linejoin="round"/>
<path d="M467.782 566.595C464.499 570.145 460.998 573.489 457.3 576.605C451.88 581.023 442.542 587.101 443.529 589.718C444.516 592.335 451.222 594.794 465.322 591.148C474.346 588.681 482.882 584.691 490.562 579.35C492.137 579.058 493.542 578.179 494.494 576.891C495.652 574.917 494.337 571.814 494.337 571.814L467.782 566.595Z" fill="white" stroke="black" stroke-width="0.75" stroke-linecap="round" stroke-linejoin="round"/>
<path d="M465.322 591.176C474.346 588.71 482.882 584.72 490.562 579.379C492.137 579.087 493.542 578.208 494.494 576.919C495.119 575.408 495.119 573.711 494.494 572.2C474.102 587.63 455.026 590.79 444.93 591.248C447.59 593.078 454.139 594.036 465.322 591.176Z" fill="black" stroke="black" stroke-width="0.75" stroke-linecap="round" stroke-linejoin="round"/>
<path d="M443.3 375.632C443.3 375.632 434.62 376.791 428.385 374.488C422.15 372.186 416.259 370.399 416.259 370.399C416.259 370.399 412.812 415.143 416.588 433.176C420.363 451.208 430.359 473.216 430.516 478.249C430.716 484.305 431.429 490.332 432.647 496.267C433.791 500.857 439.368 536.307 439.696 540.197C439.915 542.159 439.915 544.14 439.696 546.103C439.696 546.103 435.764 547.418 435.764 548.562V556.913C439.007 558.619 442.413 559.994 445.931 561.018C451.994 562.819 460.517 564.292 460.517 564.292C461.249 560.989 461.793 557.647 462.147 554.282C462.147 551.994 460.717 545.931 460.717 542.642C460.717 539.353 461.547 500.028 461.547 500.028C461.547 500.028 469.569 533.633 469.569 544.773C469.569 555.912 469.412 559.53 469.412 559.53C469.412 559.53 465.808 558.386 465.808 560.846C465.808 563.306 465.637 569.197 465.637 569.197C465.637 569.197 478.421 572.472 484.484 574.274C488.099 575.364 491.92 575.59 495.638 574.931C495.638 574.931 498.913 562.476 498.584 558.386C498.255 554.297 494.165 550.836 494.165 548.548C494.165 546.26 496.296 523.637 493.178 503.961C490.061 484.284 481.867 475.275 481.538 465.608C481.209 455.941 482.968 421.192 483.183 415.558C483.397 409.924 489.074 398.183 489.904 392.935C490.733 387.687 490.061 372.129 490.061 372.129C490.061 372.129 453.31 377.434 443.3 375.632Z" fill="black" stroke="black" stroke-width="0.75" stroke-linecap="round" stroke-linejoin="round"/>
<path d="M427.627 398.098L436.479 403.832" stroke="white" stroke-width="0.75" stroke-linecap="round" stroke-linejoin="round"/>
<path d="M459.573 495.009C460.803 498.198 461.561 500.042 461.561 500.042" stroke="white" stroke-width="0.75" stroke-linecap="round" stroke-linejoin="round"/>
<path d="M433.533 402.359C433.533 402.359 439.425 436.936 446.475 458.572C450.093 469.669 453.968 480.308 456.885 488.016" stroke="white" stroke-width="0.75" stroke-linecap="round" stroke-linejoin="round"/>
<path d="M366.981 350.264C367.138 350.75 367.953 368.625 367.953 368.625L415 364.335L414.028 341.227L366.981 350.264Z" fill="black" stroke="black" stroke-width="0.75" stroke-linecap="round" stroke-linejoin="round"/>
<path d="M459.259 256.642C459.259 256.642 448.605 260.403 446.475 263.034C444.344 265.665 431.717 310.067 427.57 323.18C423.423 336.293 422.165 375.961 422.165 375.961C424.457 376.81 426.815 377.469 429.215 377.935C431.576 378.333 433.971 378.496 436.365 378.421C436.365 378.421 450.135 332.032 456.856 316.144C463.577 300.257 474.874 277.463 479.15 268.611C483.426 259.76 487.172 258.115 486.686 253.854C486.2 249.592 484.227 247.948 481.767 247.619C479.307 247.29 459.259 256.642 459.259 256.642Z" fill="white" stroke="black" stroke-width="0.75" stroke-linecap="round" stroke-linejoin="round"/>
<path d="M460.589 255.341C460.589 255.341 449.935 259.102 447.805 261.733C445.674 264.364 433.061 308.766 429 321.879C424.939 334.992 423.552 374.66 423.552 374.66C425.844 375.508 428.202 376.168 430.602 376.633C432.964 377.024 435.358 377.187 437.752 377.12C437.752 377.12 451.523 330.73 458.244 314.829C464.965 298.927 476.276 276.219 480.537 267.296C484.799 258.372 488.56 256.814 488.073 252.552C487.587 248.291 485.614 246.646 483.154 246.318C480.695 245.989 460.589 255.341 460.589 255.341Z" fill="white" stroke="black" stroke-width="0.75" stroke-linecap="round" stroke-linejoin="round"/>
<path d="M474.989 260.732C468.308 272.16 462.449 284.05 457.457 296.31C450.736 313.685 445.331 329.2 438.438 352.366C434.295 366.67 432.908 381.631 434.348 396.453C434.348 396.453 437.623 402.03 456.971 402.688C476.319 403.346 500.571 397.111 500.571 397.111C500.571 397.111 497.283 377.434 496.954 365.808C496.625 354.182 505.977 313.356 509.909 302.702C513.842 292.049 522.365 281.395 514.199 271.071C506.034 260.746 486.5 249.106 486.5 249.106C486.5 249.106 477.12 257.128 474.989 260.732Z" fill="black" stroke="black" stroke-width="0.75" stroke-linecap="round" stroke-linejoin="round"/>
<path d="M452.867 260.575C452.867 260.575 447.79 266.967 443.2 280.595C438.61 294.223 430.087 330.43 426.154 345.831C422.222 361.232 420.248 395.495 420.248 395.495C420.248 395.495 418.118 395.338 413.699 395.338C410.788 395.251 407.931 394.524 405.333 393.207C405.333 393.207 408.451 359.602 411.239 343.872C414.028 328.142 422.222 300.1 423.695 289.117C425.168 278.135 425.654 275.361 427.627 273.874C429.601 272.386 445.002 263.063 448.119 260.932C451.236 258.801 452.867 260.575 452.867 260.575Z" fill="black" stroke="black" stroke-width="0.75" stroke-linecap="round" stroke-linejoin="round"/>
<path d="M491.548 252.71C491.548 252.71 482.21 271.228 479.751 274.674C478.325 276.642 477.062 278.722 475.976 280.895L467.782 284.012L471.056 289.26C471.056 289.26 454.511 318.89 450.25 328.757C445.988 338.624 441.67 349.249 441.67 349.249" stroke="white" stroke-width="0.75" stroke-linecap="round" stroke-linejoin="round"/>
<path d="M424.21 336.15C423.909 339.425 423.852 340.726 423.852 340.726" stroke="white" stroke-width="0.75" stroke-linecap="round" stroke-linejoin="round"/>
<path d="M444.516 266.309L435.335 280.409L437.466 283.683L432.375 289.918C432.375 289.918 426.969 312.369 425.496 324.496C425.21 326.855 424.967 328.914 424.781 330.702" stroke="white" stroke-width="0.75" stroke-linecap="round" stroke-linejoin="round"/>
<path d="M446.317 260.246L444.516 268.926L453.854 262.705L446.317 260.246Z" fill="white" stroke="black" stroke-width="0.75" stroke-linecap="round" stroke-linejoin="round"/>
<path d="M454.182 253.367C454.011 253.854 446.317 260.246 446.317 260.246L454.997 263.849L456.799 256.799L454.182 253.367Z" fill="white" stroke="black" stroke-width="0.75" stroke-linecap="round" stroke-linejoin="round"/>
<path d="M451.065 187.959C447.365 190.264 444.449 193.634 442.699 197.626C439.754 204.347 437.466 207.135 438.123 209.266C438.595 210.708 438.921 212.193 439.096 213.699C439.096 214.185 432.218 220.749 432.046 222.708C431.874 224.667 436.479 228.285 436.479 228.285C436.479 228.285 436.965 239.597 436.965 240.583C436.965 241.57 437.294 246.646 442.056 247.948C445.295 248.694 448.667 248.64 451.88 247.79L454.997 263.849C454.997 263.849 476.805 250.407 479.093 249.263C481.381 248.119 484.169 246.646 484.341 244.845C484.513 243.043 483.025 233.033 483.025 233.033C483.025 233.033 494.666 222.379 494.465 209.924C494.265 197.469 487.63 189.604 475.489 185.9C463.349 182.196 451.065 187.959 451.065 187.959Z" fill="white" stroke="black" stroke-width="0.75" stroke-linecap="round" stroke-linejoin="round"/>
<path d="M494.494 209.924C494.337 197.469 487.616 189.604 475.489 185.828C463.363 182.053 451.065 187.959 451.065 187.959C450.107 188.533 449.206 189.199 448.376 189.947C452.38 189.232 458.973 188.731 463.692 191.734C470.842 196.325 466.309 200.915 463.849 203.375C461.389 205.834 460.903 206.807 462.705 209.095C464.507 211.383 467.953 211.383 467.124 213.513C466.294 215.644 463.849 218.604 465.822 219.419C467.796 220.234 469.583 218.432 470.413 215.973C471.242 213.513 475.318 213.513 476.962 218.604C477.558 220.518 477.546 222.57 476.929 224.478C476.312 226.385 475.12 228.055 473.516 229.258C472.195 230.236 470.563 230.698 468.926 230.559C471.741 231.989 474.711 233.092 477.777 233.848C479.556 233.997 481.348 233.857 483.083 233.433C483.083 233.176 483.083 233.018 483.083 233.018C483.083 233.018 494.666 222.379 494.494 209.924Z" fill="black" stroke="black" stroke-width="0.75" stroke-linecap="round" stroke-linejoin="round"/>
<path d="M446.804 216.316C446.804 217.589 446.403 218.618 445.903 218.618C445.402 218.618 445.002 217.589 445.002 216.316C445.002 215.043 445.402 214.028 445.903 214.028C446.403 214.028 446.804 215.058 446.804 216.316Z" fill="black"/>
<path d="M442.542 209.438C442.542 209.438 443.2 207.135 446.832 207.307C450.464 207.479 450.607 210.096 450.607 210.096" fill="white"/>
<path d="M442.542 209.438C442.542 209.438 443.2 207.135 446.832 207.307C450.464 207.479 450.607 210.096 450.607 210.096" stroke="black" stroke-width="0.75" stroke-linecap="round" stroke-linejoin="round"/>
<path d="M436.479 228.285C437.481 228.647 438.555 228.762 439.61 228.62C440.666 228.478 441.672 228.084 442.542 227.47C445.159 225.339 443.028 223.523 443.028 223.523" fill="white"/>
<path d="M436.479 228.285C437.481 228.647 438.555 228.762 439.61 228.62C440.666 228.478 441.672 228.084 442.542 227.47C445.159 225.339 443.028 223.523 443.028 223.523" stroke="black" stroke-width="0.75" stroke-linecap="round" stroke-linejoin="round"/>
<path d="M437.137 230.902C437.137 230.902 445.817 226.612 449.749 226.483C453.682 226.355 457.786 233.09 456.17 238.81C454.554 244.53 452.738 247.39 447.161 249.635C441.584 251.88 436.336 251.437 435.364 247.662C434.391 243.887 438.796 238.495 440.926 237.509C443.057 236.522 444.701 236.365 444.373 238.167C444.044 239.968 443.057 241.27 447.161 240.454C451.265 239.639 453.553 238.495 453.71 234.062C453.868 229.629 452.28 227.999 447.99 228.657C443.7 229.315 437.337 232.747 437.337 232.747L437.137 230.902Z" fill="black" stroke="black" stroke-width="0.75" stroke-linecap="round" stroke-linejoin="round"/>
<path d="M440.569 234.348C440.569 234.348 447.461 234.019 449.921 231.231L440.569 234.348Z" fill="white"/>
<path d="M440.569 234.348C440.569 234.348 447.461 234.019 449.921 231.231" stroke="black" stroke-width="0.75" stroke-linecap="round" stroke-linejoin="round"/>
<path d="M468.282 230.416C468.292 231.762 468.003 233.093 467.434 234.312C466.865 235.532 466.031 236.609 464.993 237.466" fill="white"/>
<path d="M468.282 230.416C468.292 231.762 468.003 233.093 467.434 234.312C466.865 235.532 466.031 236.609 464.993 237.466" stroke="black" stroke-width="0.75" stroke-linecap="round" stroke-linejoin="round"/>
<path d="M454.997 263.849L459.759 274.832C459.759 274.832 477.777 261.39 482.21 256.142C486.643 250.893 490.075 248.277 487.616 244.702C485.156 241.127 481.553 244.044 480.895 244.373C480.237 244.702 454.997 263.849 454.997 263.849Z" fill="white" stroke="black" stroke-width="0.75" stroke-linecap="round" stroke-linejoin="round"/>
<path d="M418.99 360.718C416.949 354.078 415.311 347.32 414.085 340.483C413.098 334.205 412.655 327.813 412.655 327.813C404.737 327.092 396.998 325.042 389.761 321.75C378.95 316.516 376.648 314.6 376.648 314.6C376.648 314.6 391.234 362.133 394.194 372.129C397.154 382.125 397.797 384.255 397.797 384.255C402.475 386.573 407.43 388.283 412.541 389.346C416.599 390.103 420.711 390.538 424.839 390.647L418.99 360.718Z" fill="white" stroke="black" stroke-width="0.75" stroke-linecap="round" stroke-linejoin="round"/>
<path d="M435.335 360.717C431.868 360.073 428.502 358.972 425.325 357.443C422.941 356.06 420.34 355.093 417.632 354.583H416.974L418.933 360.646C416.514 361.181 414.046 361.459 411.568 361.475C407.636 361.475 399.428 360.16 399.113 360.646C398.809 361.821 398.698 363.039 398.784 364.25C398.784 365.408 404.676 372.458 408.122 374.917C411.568 377.377 414.671 379.007 417.789 379.007C420.906 379.007 437.623 376.719 437.623 376.719L435.335 360.717Z" fill="white" stroke="black" stroke-width="0.75" stroke-linecap="round" stroke-linejoin="round"/>
<path d="M483.025 296.796C483.025 296.796 483.841 315.158 484.341 328.428C484.842 341.698 485.657 342.857 485.657 342.857C485.657 342.857 448.934 356.628 443.357 357.772C437.78 358.916 433.533 360.231 433.533 360.231L435.993 378.092C448.009 379.106 460.11 377.997 471.743 374.817C489.618 369.569 517.145 364.321 517.646 361.876C518.146 359.43 517.646 352.037 517.646 350.436C517.646 348.834 517.145 313.556 517.145 297.826C517.145 282.096 518.289 278.478 516.33 275.203C514.371 271.929 504.361 270.284 498.627 273.559" fill="black"/>
<path d="M483.025 296.796C483.025 296.796 483.841 315.158 484.341 328.428C484.842 341.698 485.657 342.857 485.657 342.857C485.657 342.857 448.934 356.628 443.357 357.772C437.78 358.916 433.533 360.231 433.533 360.231L435.993 378.092C448.009 379.106 460.11 377.997 471.743 374.817C489.618 369.569 517.145 364.321 517.646 361.876C518.146 359.43 517.646 352.037 517.646 350.436C517.646 348.834 517.145 313.556 517.145 297.826C517.145 282.096 518.289 278.478 516.33 275.203C514.371 271.929 504.361 270.284 498.627 273.559" stroke="black" stroke-width="0.75" stroke-linecap="round" stroke-linejoin="round"/>
<path d="M455.298 353.396L485.657 342.857L482.968 302.402" stroke="white" stroke-width="0.75" stroke-linecap="round" stroke-linejoin="round"/>
<path d="M446.775 356.356L451.165 354.84" stroke="white" stroke-width="0.75" stroke-linecap="round" stroke-linejoin="round"/>
<path d="M493.493 282.01C493.493 282.01 504.933 267.71 516.302 275.161" stroke="white" stroke-width="0.75" stroke-linecap="round" stroke-linejoin="round"/>
<path d="M399.428 362.362C399.428 362.362 406.978 367.439 412.054 368.268" stroke="black" stroke-width="0.75" stroke-linecap="round" stroke-linejoin="round"/>
<path d="M400.743 367.281C402.968 369.24 405.519 370.793 408.279 371.871L411.726 372.844" stroke="black" stroke-width="0.75" stroke-linecap="round" stroke-linejoin="round"/>
<path d="M408.98 375.475C410.931 376.19 412.971 376.633 415.043 376.791" stroke="black" stroke-width="0.75" stroke-linecap="round" stroke-linejoin="round"/>
<path d="M269.784 314.099C269.784 314.099 267.525 291.005 264.865 274.732C263.435 265.737 257.986 258.072 252.295 251.208C247.59 245.488 240.483 240.254 236.565 234.177C235.207 232.089 228.085 247.19 228.071 247.204C226.641 250.422 243.586 260.617 245.874 262.934C248.877 265.937 251.594 269.484 254.326 272.715C255.57 274.145 258.844 279.594 260.718 280.051L263.749 280.809L261.476 287.63L269.784 314.099Z" fill="white" stroke="black" stroke-width="0.75" stroke-linecap="round" stroke-linejoin="round"/>
</svg>
