<svg width="715" height="715" viewBox="0 0 715 715" fill="none" xmlns="http://www.w3.org/2000/svg">
<path d="M179.079 556.613C277.62 603.574 437.38 603.589 535.921 556.613C634.462 509.638 634.448 433.505 535.921 386.543C437.394 339.582 277.62 339.582 179.079 386.543C80.5376 433.505 80.5519 509.652 179.079 556.613Z" fill="#F5F5F5"/>
<path d="M535.578 521.907C553.727 521.907 568.439 514.896 568.439 506.249C568.439 497.601 553.727 490.59 535.578 490.59C517.429 490.59 502.716 497.601 502.716 506.249C502.716 514.896 517.429 521.907 535.578 521.907Z" fill="#EBEBEB"/>
<path d="M171.6 508.494L183.226 501.787C189.717 496.49 194.658 489.539 197.526 481.667C201.115 471.771 200.615 464.25 198.041 460.474C194.88 455.827 186.687 456.642 186.358 466.423C185.671 485.7 180.051 499.07 171.6 508.494Z" fill="black"/>
<path opacity="0.2" d="M171.6 508.494L183.226 501.787C189.717 496.49 194.658 489.539 197.526 481.667C201.115 471.771 200.615 464.25 198.041 460.474C194.88 455.827 186.687 456.642 186.358 466.423C185.671 485.7 180.051 499.07 171.6 508.494Z" fill="black"/>
<path d="M171.6 509.209C171.449 509.207 171.302 509.157 171.181 509.066C171.059 508.976 170.97 508.849 170.925 508.704C170.881 508.559 170.883 508.404 170.933 508.261C170.982 508.118 171.075 507.994 171.2 507.907C198.084 489.317 192.878 463.391 192.821 463.134C192.802 463.04 192.8 462.943 192.818 462.849C192.836 462.755 192.872 462.665 192.924 462.585C192.977 462.504 193.045 462.435 193.124 462.381C193.203 462.327 193.292 462.289 193.386 462.269C193.48 462.249 193.577 462.248 193.671 462.266C193.765 462.284 193.855 462.32 193.936 462.372C194.016 462.425 194.085 462.492 194.139 462.572C194.194 462.651 194.232 462.74 194.251 462.834C194.251 463.105 199.742 489.918 172.058 509.08C171.923 509.172 171.763 509.217 171.6 509.209Z" fill="white"/>
<path d="M148.305 521.95C148.305 521.95 144.258 518.661 145.231 514.199C146.203 509.738 148.82 506.535 144.344 500.786C139.868 495.037 138.624 487.373 143.972 483.226C148.048 480.008 154.411 484.555 156.699 476.076C158.387 469.869 157.815 456.127 165.723 451.551C173.631 446.975 178.593 453.868 177.349 463.191C176.262 471.528 174.717 479.55 175.919 481.781C178.235 486.071 182.196 485.485 182.01 493.321C181.853 500.614 174.946 506.649 174.946 506.649L148.305 521.95Z" fill="black"/>
<path d="M161.59 514.957C161.415 514.955 161.247 514.891 161.116 514.776C160.984 514.66 160.899 514.501 160.875 514.328C158.83 497.383 163.735 468.125 167.739 459.43C167.773 459.334 167.827 459.246 167.897 459.172C167.968 459.098 168.054 459.04 168.148 459.002C168.243 458.965 168.345 458.947 168.447 458.952C168.549 458.957 168.649 458.983 168.74 459.03C168.825 459.068 168.902 459.124 168.966 459.192C169.03 459.261 169.079 459.341 169.111 459.429C169.143 459.517 169.157 459.611 169.152 459.704C169.147 459.798 169.124 459.89 169.083 459.974C165.122 468.554 160.389 497.897 162.348 514.099C162.368 514.287 162.313 514.475 162.195 514.622C162.077 514.769 161.906 514.864 161.719 514.886L161.59 514.957Z" fill="white"/>
<path d="M161.204 501.758C161.094 501.764 160.986 501.739 160.889 501.687C155.927 499.27 152.781 490.647 152.652 490.247C152.617 490.158 152.601 490.063 152.603 489.967C152.605 489.872 152.627 489.778 152.666 489.69C152.705 489.603 152.762 489.525 152.832 489.46C152.902 489.395 152.985 489.345 153.075 489.312C153.164 489.28 153.26 489.266 153.355 489.271C153.451 489.276 153.544 489.3 153.63 489.342C153.716 489.384 153.793 489.442 153.856 489.514C153.919 489.586 153.967 489.67 153.997 489.761C153.997 489.846 157.071 498.198 161.518 500.357C161.664 500.428 161.782 500.546 161.852 500.692C161.922 500.838 161.94 501.004 161.903 501.162C161.867 501.32 161.778 501.461 161.651 501.561C161.524 501.662 161.366 501.716 161.204 501.715V501.758Z" fill="white"/>
<path d="M161.118 507.478C160.975 507.479 160.835 507.435 160.717 507.353C160.6 507.271 160.51 507.155 160.46 507.021C160.389 506.846 160.39 506.651 160.462 506.477C160.534 506.303 160.673 506.164 160.846 506.091C169.198 502.745 174.403 492.807 174.46 492.692C174.547 492.523 174.698 492.396 174.879 492.339C175.06 492.281 175.256 492.298 175.425 492.385C175.594 492.472 175.721 492.623 175.779 492.804C175.837 492.985 175.82 493.181 175.733 493.35C175.504 493.779 170.227 503.875 161.433 507.421C161.335 507.468 161.226 507.487 161.118 507.478Z" fill="white"/>
<path d="M453.024 430.544C453.024 430.544 446.775 420.42 446.16 409.423C445.545 398.427 447.962 393.851 451.279 392.535C454.597 391.219 454.854 395.266 456.556 397.654C458.258 400.042 461.733 398.684 463.02 391.234C464.307 383.783 468.997 371.214 478.75 368.768C489.475 366.109 483.726 378.693 481.023 383.598C478.321 388.502 476.233 395.195 478.006 397.011C479.779 398.827 482.539 395.467 485.156 398.584C488.345 402.345 478.435 415.887 472.744 419.162L453.024 430.544Z" fill="black"/>
<path d="M461.59 426.297C461.496 426.294 461.404 426.271 461.318 426.232C461.233 426.193 461.156 426.137 461.092 426.068C461.029 425.999 460.979 425.918 460.947 425.83C460.914 425.741 460.899 425.648 460.903 425.554C461.872 407.864 467.388 390.724 476.919 375.79C476.973 375.712 477.043 375.646 477.123 375.596C477.203 375.545 477.293 375.512 477.386 375.497C477.48 375.482 477.575 375.487 477.667 375.51C477.759 375.533 477.845 375.575 477.92 375.632C478.07 375.744 478.171 375.909 478.2 376.094C478.229 376.278 478.185 376.467 478.078 376.619C468.717 391.334 463.3 408.211 462.348 425.625C462.342 425.719 462.318 425.811 462.277 425.896C462.236 425.98 462.179 426.056 462.108 426.119C462.038 426.181 461.956 426.229 461.867 426.26C461.778 426.29 461.684 426.303 461.59 426.297Z" fill="white"/>
<path d="M462.405 417.846C462.285 417.845 462.168 417.815 462.062 417.76C458.058 415.544 455.841 408.966 455.755 408.694C455.724 408.605 455.71 408.51 455.715 408.416C455.721 408.321 455.745 408.229 455.786 408.144C455.827 408.059 455.885 407.983 455.956 407.92C456.026 407.857 456.109 407.809 456.199 407.779C456.379 407.72 456.575 407.735 456.744 407.821C456.913 407.907 457.041 408.056 457.1 408.236C457.1 408.236 459.245 414.571 462.82 416.502C462.981 416.598 463.1 416.752 463.151 416.933C463.201 417.115 463.18 417.308 463.091 417.474C463.027 417.597 462.927 417.698 462.805 417.765C462.682 417.831 462.543 417.859 462.405 417.846Z" fill="white"/>
<path d="M463.106 413.513C462.947 413.511 462.794 413.457 462.669 413.359C462.545 413.26 462.457 413.124 462.419 412.97C462.396 412.88 462.39 412.786 462.404 412.693C462.417 412.601 462.448 412.512 462.496 412.433C462.544 412.353 462.608 412.283 462.683 412.228C462.758 412.173 462.843 412.133 462.934 412.112C473.259 409.495 476.834 404.089 476.862 404.032C476.913 403.952 476.979 403.883 477.056 403.829C477.134 403.775 477.221 403.736 477.313 403.716C477.405 403.695 477.501 403.693 477.594 403.709C477.687 403.725 477.776 403.76 477.856 403.811C477.936 403.861 478.005 403.927 478.059 404.005C478.113 404.082 478.152 404.169 478.173 404.262C478.193 404.354 478.195 404.449 478.179 404.542C478.163 404.636 478.128 404.725 478.078 404.804C477.92 405.047 474.202 410.725 463.291 413.499L463.106 413.513Z" fill="white"/>
<path d="M297.44 408.322C297.44 408.322 283.726 404.976 283.011 379.293C282.253 351.58 286.372 319.233 270.141 316.616C253.911 313.999 244.902 333.776 245.102 356.871C245.288 377.091 253.439 420.992 297.383 429.601L297.44 408.322Z" fill="black"/>
<path opacity="0.2" d="M297.44 408.322C297.44 408.322 283.726 404.976 283.011 379.293C282.253 351.58 286.372 319.233 270.141 316.616C253.911 313.999 244.902 333.776 245.102 356.871C245.288 377.091 253.439 420.992 297.383 429.601L297.44 408.322Z" fill="black"/>
<path d="M297.44 426.969H297.311C287.43 425.168 279.379 419.719 273.387 410.796C255.627 384.298 261.218 334.82 263.063 326.183C263.104 325.999 263.215 325.838 263.372 325.734C263.53 325.63 263.721 325.591 263.907 325.625C264.092 325.67 264.253 325.783 264.356 325.943C264.46 326.103 264.499 326.296 264.464 326.483C262.648 335.063 257.085 383.912 274.574 409.995C277.12 414.04 280.479 417.512 284.437 420.19C288.395 422.869 292.867 424.695 297.569 425.554C297.662 425.571 297.751 425.606 297.83 425.658C297.91 425.71 297.978 425.777 298.031 425.856C298.085 425.934 298.122 426.023 298.141 426.116C298.159 426.209 298.159 426.304 298.141 426.397C298.11 426.56 298.023 426.707 297.895 426.812C297.767 426.916 297.606 426.972 297.44 426.969Z" fill="white"/>
<path d="M297.44 492.878C283.269 494.794 260.26 494.766 246.975 484.298C233.691 473.831 236.465 464.822 241.57 461.061C246.675 457.3 251.108 453.01 242.328 444.659C233.548 436.307 219.448 422.894 214.872 402.774C210.296 382.654 212.555 370.07 221.536 365.88C230.244 361.819 232.547 368.282 237.881 381.61C243.214 394.937 255.212 383.512 265.48 387.673C275.747 391.834 275.332 400.071 275.976 407.15C276.619 414.228 280.008 416.187 285.828 416.187C291.649 416.187 297.44 419.533 297.44 426.197V492.878Z" fill="black"/>
<path d="M297.44 469.512C297.379 469.525 297.315 469.525 297.254 469.512C296.639 469.34 281.982 465.079 260.632 445.474C237.895 424.596 227.17 393.279 227.055 392.964C227.001 392.784 227.018 392.589 227.103 392.421C227.188 392.254 227.335 392.125 227.513 392.063C227.691 392.004 227.886 392.017 228.054 392.1C228.223 392.183 228.352 392.329 228.414 392.506C228.514 392.821 239.139 423.795 261.604 444.415C282.654 463.763 297.483 468.096 297.64 468.139C297.73 468.165 297.814 468.209 297.888 468.268C297.961 468.327 298.022 468.399 298.067 468.482C298.112 468.564 298.141 468.654 298.151 468.748C298.161 468.841 298.153 468.936 298.126 469.026C298.08 469.17 297.988 469.296 297.864 469.383C297.74 469.471 297.592 469.516 297.44 469.512Z" fill="white"/>
<path d="M266.595 450.45C266.451 450.452 266.31 450.409 266.192 450.327C266.074 450.245 265.985 450.128 265.937 449.992C261.347 438.209 260.303 412.998 260.217 411.926C260.213 411.737 260.282 411.554 260.41 411.416C260.538 411.277 260.715 411.193 260.903 411.182C261.09 411.185 261.269 411.256 261.407 411.383C261.544 411.51 261.629 411.683 261.647 411.869C261.647 412.126 262.72 437.909 267.224 449.478C267.259 449.566 267.275 449.66 267.273 449.755C267.271 449.849 267.25 449.943 267.211 450.029C267.172 450.116 267.117 450.193 267.048 450.258C266.979 450.323 266.898 450.374 266.809 450.407C266.74 450.432 266.668 450.446 266.595 450.45Z" fill="white"/>
<path d="M266.481 467.396C265.162 467.406 263.844 467.339 262.534 467.195C262.44 467.184 262.349 467.154 262.267 467.108C262.184 467.062 262.112 467 262.053 466.925C261.995 466.851 261.952 466.766 261.926 466.675C261.901 466.584 261.893 466.488 261.905 466.395C261.916 466.301 261.945 466.21 261.992 466.127C262.038 466.045 262.1 465.973 262.175 465.914C262.249 465.856 262.334 465.812 262.425 465.787C262.516 465.761 262.611 465.754 262.705 465.765C262.834 465.765 276.147 467.281 282.253 461.061C282.317 460.985 282.395 460.924 282.484 460.881C282.572 460.837 282.669 460.812 282.767 460.808C282.866 460.803 282.964 460.819 283.056 460.854C283.148 460.89 283.231 460.944 283.302 461.013C283.372 461.082 283.427 461.165 283.464 461.256C283.5 461.348 283.517 461.446 283.514 461.544C283.511 461.643 283.488 461.74 283.446 461.829C283.403 461.918 283.343 461.997 283.269 462.062C278.85 466.623 271.142 467.396 266.481 467.396Z" fill="white"/>
<path d="M256.184 196.611L254.64 187.702L246.689 192.936C245.963 191.506 244.933 190.251 243.672 189.261L247.476 178.965L240.326 177.377L235.092 187.387C233.198 187.707 231.362 188.304 229.644 189.16L227.37 181.61L218.876 188.288L219.433 197.154C217.704 199.092 216.135 201.167 214.743 203.36L207.736 203.003L202.817 214.028L208.837 216.602C208.209 218.883 207.811 221.22 207.65 223.581L200 230.616L201.53 239.539L209.495 234.306C210.217 235.734 211.248 236.984 212.512 237.966L208.78 248.277L215.93 249.85L223.423 242.557C225.153 242.285 224.724 239.025 226.612 238.095L228.886 245.617L237.366 238.953L237.151 235.464C238.867 233.548 245.359 229.329 246.761 227.127L248.52 224.267L253.439 213.242L251.151 209.095L248.605 203.689L256.184 196.611ZM230.23 225.94C223.709 231.059 221.65 232.189 220.549 225.339C219.448 218.49 223.18 208.079 229.701 202.946C236.222 197.812 238.71 197.454 239.882 204.29C241.055 211.125 236.765 220.878 230.23 225.94Z" fill="#E0E0E0"/>
<path d="M240.383 177.377L249.664 182.725L244.43 192.707L235.149 187.359L240.383 177.377Z" fill="#F5F5F5"/>
<path d="M263.921 193.05L255.97 198.284L246.689 192.936L254.64 187.702L263.921 193.05Z" fill="#F5F5F5"/>
<path d="M262.648 218.547L256.628 215.987L247.347 210.639L253.367 213.199L262.648 218.547Z" fill="#E0E0E0"/>
<path d="M208.766 248.277L218.046 253.611L221.85 243.314L212.569 237.966L208.766 248.277Z" fill="#E0E0E0"/>
<path d="M238.081 250.965L228.814 245.617L226.541 238.095L235.821 243.443L238.081 250.965Z" fill="#E0E0E0"/>
<path d="M265.451 201.959L263.921 193.05L255.97 198.284C255.238 196.853 254.204 195.599 252.938 194.609L256.742 184.313L249.664 182.725L244.416 192.735C242.522 193.055 240.686 193.652 238.967 194.509L236.708 186.987L228.214 193.665L228.771 202.531C227.04 204.482 225.471 206.572 224.081 208.78L217.06 208.423L212.14 219.448L218.161 222.022C217.538 224.308 217.14 226.65 216.974 229.014L209.338 235.95L210.868 244.873L218.819 239.639C219.551 241.066 220.585 242.315 221.85 243.3L218.046 253.596L225.196 255.183L230.43 245.174C232.331 244.858 234.173 244.255 235.893 243.386L238.152 250.908L246.646 244.244L246.089 235.378C247.818 233.44 249.387 231.365 250.779 229.172L257.8 229.515L262.72 218.49L256.613 215.93C257.246 213.645 257.649 211.302 257.815 208.937L265.451 201.959ZM239.525 231.345C233.018 236.465 226.784 235.078 225.597 228.242C224.41 221.407 228.743 211.697 235.264 206.578C241.784 201.458 248.005 202.86 249.192 209.695C250.379 216.531 246.046 226.226 239.525 231.345Z" fill="#EBEBEB"/>
<path d="M236.708 186.958L227.427 181.61L218.933 188.288L228.214 193.636L236.708 186.958Z" fill="#F5F5F5"/>
<path d="M218.933 188.288L219.491 197.154L228.771 202.502L228.214 193.636L218.933 188.288Z" fill="#E0E0E0"/>
<path d="M224.081 208.708L214.8 203.36L207.793 203.017L217.06 208.365L224.081 208.708Z" fill="#F5F5F5"/>
<path d="M207.793 203.017L202.874 214.028L212.141 219.376L217.06 208.365L207.793 203.017Z" fill="#E0E0E0"/>
<path d="M216.974 228.929L207.707 223.581L200.057 230.616L209.323 235.964L216.974 228.929Z" fill="#F5F5F5"/>
<path d="M210.868 244.887L201.587 239.539L200.057 230.616L209.323 235.964L210.868 244.887Z" fill="#E0E0E0"/>
<path d="M249.664 182.725L240.383 177.377L247.476 178.965L256.742 184.313L249.664 182.725Z" fill="#F5F5F5"/>
<path d="M214.629 156.17V142.857L204.032 147.633C203.471 145.374 202.502 143.237 201.172 141.327L207.85 127.871L199.699 123.166L191.377 135.678C189.058 135.476 186.721 135.704 184.484 136.351L183.312 124.782L171.786 131.446L170.628 144.316C168.119 146.538 165.813 148.979 163.735 151.609L155.412 148.749L147.261 162.877L153.925 168.597C152.694 171.711 151.737 174.926 151.065 178.207L140.469 185.657V198.984L151.065 194.208C151.626 196.467 152.596 198.604 153.925 200.515L147.29 213.985L155.441 218.69L163.764 206.177C166.083 206.379 168.42 206.152 170.656 205.505L171.814 217.074L183.34 210.41L184.513 197.54C188.11 196.228 191.297 193.988 193.751 191.048L199.728 193.15L207.879 179.036L202.874 174.746C203.961 171.169 204.363 167.419 204.061 163.692L214.629 156.17ZM177.549 189.432C168.711 194.537 163.249 190.862 163.249 180.695C163.249 170.528 170.556 157.958 179.408 152.853C188.259 147.748 193.608 151.423 193.608 161.676C193.608 171.929 186.4 184.313 177.549 189.432Z" fill="#E0E0E0"/>
<path d="M208.966 128.5L199.699 123.166L191.377 135.678L200.643 141.027L208.966 128.5Z" fill="#F5F5F5"/>
<path d="M223.909 148.205L214.629 142.857L204.032 147.633L213.313 152.981L223.909 148.205Z" fill="#F5F5F5"/>
<path d="M181.052 222.422L171.786 217.074L170.628 205.505L179.894 210.853L181.052 222.422Z" fill="#E0E0E0"/>
<path d="M147.247 213.985L156.528 219.333L163.206 205.877L153.925 200.529L147.247 213.985Z" fill="#E0E0E0"/>
<path d="M223.909 161.59V148.277L213.313 153.01C212.758 150.749 211.788 148.611 210.453 146.704L217.131 133.247L208.98 128.528L200.658 141.055C198.338 140.846 196 141.074 193.765 141.727L192.592 130.13L181.067 136.794L179.894 149.664C177.389 151.89 175.083 154.33 173.001 156.957L164.679 154.097L156.528 168.225L163.206 173.945C161.968 177.057 161.011 180.273 160.346 183.555L149.75 191.005V204.333L160.346 199.557C160.901 201.817 161.871 203.956 163.206 205.863L156.528 219.319L164.679 224.024L173.001 211.511C175.321 211.714 177.657 211.486 179.894 210.839L181.067 222.408L192.592 215.744L193.751 202.874C196.259 200.651 198.566 198.211 200.643 195.581L208.966 198.441L217.117 184.327L210.439 178.607C211.676 175.495 212.633 172.279 213.299 168.997L223.909 161.59ZM186.829 194.852C177.978 199.957 170.799 195.81 170.799 185.6C170.799 175.389 177.949 162.963 186.829 157.843C195.71 152.724 202.845 156.885 202.845 167.095C202.845 177.306 195.667 189.661 186.829 194.78V194.852Z" fill="#EBEBEB"/>
<path d="M163.735 151.637L173.001 156.985L164.679 154.082L155.412 148.72L163.735 151.637Z" fill="#F0F0F0"/>
<path d="M155.411 148.735L147.258 162.868L156.536 168.22L164.689 154.087L155.411 148.735Z" fill="#F5F5F5"/>
<path d="M147.247 162.848L156.528 168.197L163.206 173.945L153.925 168.611L147.247 162.848Z" fill="#E0E0E0"/>
<path d="M151.065 178.221L160.346 183.569L149.75 191.019L140.469 185.671L151.065 178.221Z" fill="#F5F5F5"/>
<path d="M140.469 185.671L149.75 191.019V204.347L140.469 198.999V185.671Z" fill="#E0E0E0"/>
<path d="M192.592 130.13L183.312 124.782L171.786 131.446L181.052 136.794L192.592 130.13Z" fill="#F5F5F5"/>
<path d="M311.568 512.011L445.988 434.391C446.285 434.287 446.541 434.093 446.723 433.837C446.904 433.581 447.001 433.275 447.001 432.961C447.001 432.647 446.904 432.341 446.723 432.085C446.541 431.829 446.285 431.635 445.988 431.531L433.562 424.381C432.792 423.994 431.942 423.792 431.081 423.792C430.219 423.792 429.369 423.994 428.6 424.381L294.137 501.93C293.841 502.034 293.584 502.228 293.403 502.484C293.221 502.74 293.124 503.046 293.124 503.36C293.124 503.674 293.221 503.98 293.403 504.236C293.584 504.492 293.841 504.686 294.137 504.79L306.606 511.94C307.37 512.338 308.217 512.552 309.079 512.565C309.941 512.577 310.793 512.388 311.568 512.011Z" fill="#E0E0E0"/>
<path d="M442.299 134.706L321.092 204.69C319.29 205.866 317.791 207.45 316.715 209.313C315.639 211.176 315.018 213.267 314.9 215.415V502.945C314.9 506.892 317.674 508.494 321.092 506.52L442.299 436.536C444.103 435.363 445.604 433.78 446.681 431.916C447.757 430.052 448.377 427.96 448.491 425.811V138.281C448.491 134.334 445.731 132.733 442.299 134.706Z" fill="#455A64"/>
<path d="M321.092 204.69L442.299 134.706C445.359 132.933 447.89 134.034 448.405 137.108C448.119 135.175 447.427 133.325 446.375 131.678C445.322 130.032 443.933 128.627 442.299 127.556L437.265 124.696C435.347 123.722 433.225 123.215 431.074 123.215C428.922 123.215 426.8 123.722 424.882 124.696L303.66 194.623C301.835 195.768 300.329 197.357 299.285 199.242L316.716 209.252C317.761 207.382 319.267 205.811 321.092 204.69Z" fill="#37474F"/>
<path d="M297.44 492.878C297.557 495.026 298.179 497.117 299.255 498.98C300.331 500.843 301.83 502.427 303.632 503.603L308.68 506.463C310.427 507.337 312.339 507.832 314.291 507.916C316.242 508 318.19 507.67 320.005 506.949C317.145 508.065 314.872 506.42 314.872 502.888V215.415C314.943 213.258 315.569 211.155 316.688 209.309L299.256 199.299C298.153 201.131 297.528 203.211 297.44 205.348V492.878Z" fill="#263238"/>
<path d="M324.424 243L439.01 176.862C441.069 175.69 442.728 176.648 442.728 179.007V391.82C442.659 393.11 442.287 394.365 441.641 395.483C440.994 396.602 440.093 397.551 439.01 398.255L324.467 464.393C322.408 465.579 320.749 464.621 320.749 462.247V249.435C320.814 248.149 321.181 246.897 321.819 245.779C322.457 244.661 323.35 243.709 324.424 243Z" fill="white"/>
<path d="M381.696 180.595C381.063 181.01 380.537 181.568 380.159 182.224C379.782 182.879 379.564 183.614 379.522 184.37C379.522 185.8 380.494 186.329 381.696 185.628C382.33 185.216 382.858 184.658 383.236 184.002C383.614 183.346 383.831 182.609 383.869 181.853C383.869 180.466 382.897 179.908 381.696 180.595Z" fill="#37474F"/>
<path d="M381.696 441.498C379.196 443.134 377.116 445.335 375.626 447.924C374.135 450.512 373.275 453.416 373.116 456.399C373.116 461.876 376.962 464.107 381.696 461.361C384.195 459.725 386.274 457.523 387.764 454.935C389.255 452.346 390.115 449.443 390.276 446.46C390.304 440.983 386.443 438.753 381.696 441.498Z" fill="#37474F"/>
<path d="M361.118 202.731C359.861 203.565 358.818 204.683 358.073 205.995C357.328 207.306 356.901 208.775 356.828 210.281C356.828 213.056 358.773 214.185 361.118 212.798C362.388 211.972 363.445 210.857 364.203 209.545C364.961 208.233 365.398 206.761 365.479 205.248C365.479 202.474 363.535 201.344 361.118 202.731Z" fill="#37474F"/>
<path d="M371.8 201.787C371.8 203.646 373.23 204.347 374.903 203.36L403.503 186.815C404.389 186.262 405.132 185.507 405.671 184.613C406.21 183.718 406.531 182.709 406.606 181.667C406.606 179.823 405.176 179.122 403.503 180.108L374.903 196.654C374.019 197.205 373.277 197.958 372.738 198.85C372.199 199.742 371.878 200.748 371.8 201.787Z" fill="#37474F"/>
<path d="M307.107 252.209C308.122 252.87 308.966 253.761 309.573 254.809C310.179 255.858 310.529 257.034 310.596 258.244C310.596 260.475 309.037 261.375 307.107 260.26C306.095 259.597 305.254 258.705 304.651 257.657C304.047 256.608 303.698 255.433 303.632 254.225C303.632 252.009 305.191 251.108 307.107 252.209Z" fill="#37474F"/>
<path d="M307.107 279.064C308.122 279.726 308.966 280.616 309.573 281.665C310.179 282.713 310.529 283.89 310.596 285.099C310.596 287.316 309.037 288.216 307.107 287.115C306.095 286.452 305.254 285.56 304.651 284.512C304.047 283.464 303.698 282.289 303.632 281.081C303.632 278.85 305.191 277.949 307.107 279.064Z" fill="#37474F"/>
<path d="M306.02 252.753C307.035 253.414 307.88 254.304 308.486 255.353C309.092 256.401 309.443 257.578 309.509 258.787C309.509 261.004 307.95 261.905 306.02 260.803C305.005 260.142 304.16 259.252 303.554 258.203C302.948 257.155 302.597 255.978 302.531 254.769C302.545 252.538 304.104 251.68 306.02 252.753Z" fill="#455A64"/>
<path d="M306.02 279.594C307.037 280.256 307.883 281.149 308.489 282.2C309.095 283.251 309.445 284.431 309.509 285.643C309.509 287.859 307.95 288.76 306.02 287.645C305.003 286.986 304.156 286.096 303.55 285.047C302.943 283.998 302.594 282.82 302.531 281.61C302.545 279.393 304.104 278.493 306.02 279.594Z" fill="#455A64"/>
<path d="M465.923 185.743C465.923 183.369 464.264 182.411 462.205 183.598L448.491 191.506L347.662 249.735C346.579 250.439 345.677 251.389 345.031 252.507C344.385 253.625 344.012 254.88 343.944 256.17V468.926C343.944 471.299 345.602 472.258 347.662 471.071L448.534 412.827L462.205 404.933C463.288 404.229 464.189 403.28 464.835 402.161C465.481 401.043 465.854 399.788 465.923 398.498V185.743Z" fill="white"/>
<path d="M467.353 185.743C467.443 185.026 467.319 184.298 466.998 183.651C466.676 183.003 466.171 182.465 465.545 182.103C464.92 181.742 464.201 181.572 463.48 181.617C462.758 181.661 462.066 181.918 461.49 182.354L448.405 189.918L346.947 248.548C345.64 249.373 344.554 250.503 343.782 251.84C343.01 253.178 342.574 254.684 342.514 256.227V468.926C342.456 469.64 342.593 470.356 342.911 470.998C343.228 471.64 343.713 472.184 344.315 472.572C344.827 472.87 345.411 473.023 346.003 473.015C346.841 472.989 347.658 472.748 348.377 472.315L449.907 413.685L462.962 406.149C464.261 405.316 465.342 404.184 466.113 402.848C466.884 401.512 467.324 400.011 467.395 398.469L467.353 185.743ZM448.434 411.239L447.261 411.926L347.004 469.812C346.835 469.942 346.64 470.032 346.432 470.076C346.224 470.121 346.009 470.119 345.803 470.07C345.617 469.955 345.431 469.555 345.431 468.897V256.17C345.505 255.132 345.814 254.124 346.334 253.222C346.854 252.321 347.572 251.549 348.434 250.965L448.591 193.05L462.891 184.77C463.06 184.641 463.255 184.551 463.463 184.506C463.67 184.462 463.885 184.464 464.092 184.513C464.278 184.627 464.464 185.028 464.464 185.686V398.498C464.39 399.536 464.081 400.544 463.561 401.446C463.041 402.348 462.323 403.119 461.461 403.703L448.405 411.239H448.434Z" fill="black"/>
<path d="M404.933 235.178C417.803 227.77 428.171 233.748 428.171 248.606C428.171 263.463 417.76 281.496 404.933 288.846C392.106 296.196 381.696 290.276 381.696 275.432C381.696 260.589 392.106 242.6 404.933 235.178Z" fill="black"/>
<path d="M404.933 246.847C409.094 244.444 412.469 246.389 412.469 251.137C412.328 253.752 411.572 256.297 410.262 258.566C408.953 260.834 407.127 262.762 404.933 264.193C400.772 266.595 397.397 264.65 397.397 259.903C397.538 257.287 398.294 254.742 399.604 252.473C400.913 250.205 402.739 248.277 404.933 246.847Z" fill="black"/>
<path d="M419.619 272.472C419.619 264.579 414.085 261.375 407.235 265.322L402.945 267.796C396.11 271.743 390.562 281.352 390.562 289.246V291.377C394.523 292.678 399.499 291.977 404.862 288.846C410.802 285.181 415.826 280.207 419.548 274.303L419.619 272.472Z" fill="black"/>
<path opacity="0.7" d="M404.933 246.847C409.094 244.444 412.469 246.389 412.469 251.137C412.328 253.752 411.572 256.297 410.262 258.566C408.953 260.834 407.127 262.762 404.933 264.193C400.772 266.595 397.397 264.65 397.397 259.903C397.538 257.287 398.294 254.742 399.604 252.473C400.913 250.205 402.739 248.277 404.933 246.847Z" fill="white"/>
<path opacity="0.7" d="M419.619 272.472C419.619 264.579 414.085 261.375 407.235 265.322L402.945 267.796C396.11 271.743 390.562 281.352 390.562 289.246V291.377C394.523 292.678 399.499 291.977 404.862 288.846C410.802 285.181 415.826 280.207 419.548 274.303L419.619 272.472Z" fill="white"/>
<path d="M359.974 321.521L389.875 304.261C391.305 303.475 392.349 304.104 392.349 305.691V306.678C392.304 307.537 392.056 308.374 391.626 309.119C391.196 309.865 390.596 310.498 389.875 310.968L359.974 328.228C358.615 329.014 357.5 328.371 357.5 326.798V325.811C357.546 324.952 357.795 324.116 358.224 323.371C358.654 322.625 359.254 321.992 359.974 321.521Z" fill="black"/>
<path opacity="0.1" d="M359.974 321.521L389.875 304.261C391.305 303.475 392.349 304.104 392.349 305.691V306.678C392.304 307.537 392.056 308.374 391.626 309.119C391.196 309.865 390.596 310.498 389.875 310.968L359.974 328.228C358.615 329.014 357.5 328.371 357.5 326.798V325.811C357.546 324.952 357.795 324.116 358.224 323.371C358.654 322.625 359.254 321.992 359.974 321.521Z" fill="black"/>
<path d="M358.744 342.356L449.206 290.133C449.878 289.732 450.436 290.047 450.436 290.848V301.401C450.411 301.829 450.286 302.246 450.073 302.618C449.86 302.99 449.563 303.308 449.206 303.546L358.744 355.77C358.058 356.17 357.5 355.841 357.5 355.055V344.501C357.525 344.071 357.65 343.653 357.866 343.28C358.082 342.908 358.383 342.591 358.744 342.356Z" fill="black"/>
<path opacity="0.2" d="M358.744 342.356L449.206 290.133C449.878 289.732 450.436 290.047 450.436 290.848V301.401C450.411 301.829 450.286 302.246 450.073 302.618C449.86 302.99 449.563 303.308 449.206 303.546L358.744 355.77C358.058 356.17 357.5 355.841 357.5 355.055V344.501C357.525 344.071 357.65 343.653 357.866 343.28C358.082 342.908 358.383 342.591 358.744 342.356Z" fill="white"/>
<path d="M359.974 368.468L389.875 351.208C391.305 350.421 392.349 351.065 392.349 352.638V353.625C392.305 354.484 392.058 355.321 391.628 356.067C391.198 356.813 390.597 357.446 389.875 357.915L359.974 375.175C358.615 375.976 357.5 375.332 357.5 373.745V372.758C357.549 371.899 357.798 371.064 358.227 370.319C358.657 369.574 359.255 368.94 359.974 368.468Z" fill="black"/>
<path opacity="0.1" d="M359.974 368.468L389.875 351.208C391.305 350.421 392.349 351.065 392.349 352.638V353.625C392.305 354.484 392.058 355.321 391.628 356.067C391.198 356.813 390.597 357.446 389.875 357.915L359.974 375.175C358.615 375.976 357.5 375.332 357.5 373.745V372.758C357.549 371.899 357.798 371.064 358.227 370.319C358.657 369.574 359.255 368.94 359.974 368.468Z" fill="black"/>
<path d="M358.744 389.303L449.206 337.08C449.878 336.679 450.436 337.008 450.436 337.795V348.348C450.411 348.776 450.286 349.193 450.073 349.565C449.86 349.937 449.563 350.255 449.206 350.493L358.744 402.717C358.058 403.117 357.5 402.802 357.5 402.002V391.448C357.525 391.018 357.65 390.6 357.866 390.227C358.082 389.855 358.383 389.538 358.744 389.303Z" fill="black"/>
<path opacity="0.2" d="M358.744 389.303L449.206 337.08C449.878 336.679 450.436 337.008 450.436 337.795V348.348C450.411 348.776 450.286 349.193 450.073 349.565C449.86 349.937 449.563 350.255 449.206 350.493L358.744 402.717C358.058 403.117 357.5 402.802 357.5 402.002V391.448C357.525 391.018 357.65 390.6 357.866 390.227C358.082 389.855 358.383 389.538 358.744 389.303Z" fill="white"/>
<path d="M394.823 395.295L430.573 374.689C432.003 373.888 433.061 374.531 433.061 376.119V387.158C433.014 388.019 432.764 388.856 432.332 389.602C431.9 390.347 431.297 390.98 430.573 391.448L394.823 412.069C393.393 412.855 392.349 412.212 392.349 410.639V399.585C392.399 398.727 392.648 397.892 393.078 397.147C393.507 396.402 394.105 395.768 394.823 395.295Z" fill="black"/>
<path opacity="0.1" d="M394.823 395.295L430.573 374.689C432.003 373.888 433.061 374.531 433.061 376.119V387.158C433.014 388.019 432.764 388.856 432.332 389.602C431.9 390.347 431.297 390.98 430.573 391.448L394.823 412.069C393.393 412.855 392.349 412.212 392.349 410.639V399.585C392.399 398.727 392.648 397.892 393.078 397.147C393.507 396.402 394.105 395.768 394.823 395.295Z" fill="black"/>
<path d="M479.479 348.706C479.479 348.706 461.919 324.481 460.889 321.536C460.074 319.362 460.889 316.13 461.146 314.629C461.404 313.127 461.633 309.781 461.89 308.909C462.319 307.278 460.217 307.607 459.03 309.094C457.843 310.582 457.443 313.556 456.828 314.042C456.213 314.528 451.537 307.707 449.091 304.561C446.646 301.415 445.116 299.499 443.615 300.672C442.542 301.515 443.343 303.346 445.116 306.034C446.152 307.482 447.106 308.986 447.976 310.539C448.248 311.125 446.789 311.168 446.003 312.383C445.388 313.327 446.003 314.857 445.145 315.587C444.617 315.989 444.255 316.571 444.128 317.222C444.002 317.873 444.119 318.548 444.458 319.119C446.05 321.619 448.103 323.793 450.507 325.525C453.138 327.341 454.197 327.985 455.755 330.459C457.314 332.933 471.299 358.201 472.243 359.716C473.187 361.232 475.003 364.321 477.763 364.407C480.523 364.493 503.117 345.045 504.275 344.072C507.993 340.969 509.18 340.526 509.809 343.314C510.027 344.306 510.189 345.308 510.295 346.317C510.739 349.864 513.155 362.534 513.155 362.534C513.155 362.534 524.595 368.068 533.991 365.394C543.386 362.719 546.56 358.73 546.56 358.73L541.856 351.065C543.128 347.905 549.006 335.092 550.907 326.126L521.449 321.364C520.849 321.235 519.876 320.992 518.589 320.663C516.974 320.234 512.869 318.819 509.766 321.536C499.642 330.359 479.508 348.706 479.508 348.706" fill="#FFA8A7"/>
<path d="M537.88 497.34L532.604 504.676C535.002 505.795 537.622 506.357 540.268 506.32C545.002 506.492 546.303 504.89 546.474 504.576C547.275 502.86 546.031 499.771 545.688 497.111L537.88 497.34Z" fill="#37474F"/>
<path d="M532.904 501.158C532.904 501.158 526.497 500.743 522.079 500.2C517.66 499.656 514.156 501.801 515.186 503.617C516.216 505.433 518.661 506.949 522.465 508.222C525.711 509.323 529.615 510.11 532.99 511.082C536.364 512.054 538.71 513.327 540.669 512.641C542.857 511.883 543.8 511.01 543.614 509.409C543.137 507.131 542.545 504.878 541.841 502.659L532.904 501.158Z" fill="#37474F"/>
<path d="M546.474 489.975C546.474 489.975 545.674 496.639 545.616 498.069C545.559 499.499 539.11 499.957 537.88 497.34L537.68 489.189L546.474 489.975Z" fill="#F28F8F"/>
<path d="M539.982 494.065L542.285 504.189C542.285 504.189 542.499 505.419 537.237 506.206C531.974 506.992 523.709 503.446 522.293 502.731C520.877 502.016 520.72 500.572 525.897 500.858C531.073 501.144 532.904 501.158 532.904 501.158L531.216 496.682L539.982 494.065Z" fill="#FFA8A7"/>
<path d="M550.822 326.04L554.468 325.025C554.468 325.025 562.09 349.149 562.934 351.48C563.777 353.811 564.736 356.27 563.091 359.144C561.132 362.562 550.822 376.304 550.822 376.304L544.272 369.898L551.708 356.284L545.13 342.986L550.822 326.04Z" fill="#F28F8F"/>
<path d="M513.37 294.709C512.515 293.104 512.081 291.308 512.109 289.49C512.136 287.672 512.624 285.891 513.527 284.313C517.159 277.577 525.253 274.303 534.891 275.547C539.353 276.133 544.615 279.837 547.49 285.371C550.664 291.505 550.965 303.861 551.78 308.537L513.37 294.709Z" fill="#37474F"/>
<path d="M513.112 297.354C513.112 297.354 510.824 301.716 511.225 302.116C511.818 302.462 512.466 302.704 513.141 302.831L513.112 297.354Z" fill="#FFA8A7"/>
<path d="M520.062 283.569C517.574 285.185 513.284 288.159 513.098 297.955C512.898 307.965 514.328 311.268 515.815 312.426C516.816 313.213 522.694 312.812 525.21 312.226C527.727 311.64 534.977 308.051 537.594 302.602C540.669 296.196 540.039 286.872 535.478 284.012C533.156 282.639 530.524 281.878 527.827 281.801C525.131 281.723 522.459 282.332 520.062 283.569Z" fill="#FFA8A7"/>
<path d="M546.474 358.673C550.879 365.537 555.054 371.543 555.97 379.293C557.857 395.581 551.68 414.199 550.35 426.254C552.851 429.683 554.292 433.77 554.497 438.009C554.497 443 546.474 489.975 546.474 489.975C546.474 489.975 540.64 491.748 537.68 489.189L532.174 402.774L535.034 392.249L546.474 358.673Z" fill="black"/>
<path opacity="0.2" d="M546.474 358.673C550.879 365.537 555.054 371.543 555.97 379.293C557.857 395.581 551.68 414.199 550.35 426.254C552.851 429.683 554.292 433.77 554.497 438.009C554.497 443 546.474 489.975 546.474 489.975C546.474 489.975 540.64 491.748 537.68 489.189L532.174 402.774L535.034 392.249L546.474 358.673Z" fill="black"/>
<path d="M532.174 402.774L535.034 392.249C540.51 390.807 545.792 388.709 550.764 386C550.764 386 547.79 391.42 539.239 394.394L534.82 407.907L534.448 438.867L532.174 402.774Z" fill="black"/>
<path opacity="0.3" d="M532.174 402.774L535.034 392.249C540.51 390.807 545.792 388.709 550.764 386C550.764 386 547.79 391.42 539.239 394.394L534.82 407.907L534.448 438.867L532.174 402.774Z" fill="black"/>
<path d="M546.474 358.673C548.834 362.534 554.468 369.112 553.267 375.446C551.837 383.111 547.69 388.502 535.077 392.249L523.237 435.149C523.237 435.149 529.4 440.869 531.288 446.403C533.175 451.937 539.982 494.094 539.982 494.094C539.982 494.094 537.866 497.54 531.216 496.711C531.216 496.711 508.036 443.801 506.406 440.354C504.427 436.864 503.734 432.791 504.447 428.843C505.176 423.294 513.027 362.562 513.027 362.562L546.474 358.673Z" fill="black"/>
<path opacity="0.2" d="M546.474 358.673C548.834 362.534 554.468 369.112 553.267 375.446C551.837 383.111 547.69 388.502 535.077 392.249L523.237 435.149C523.237 435.149 529.4 440.869 531.288 446.403C533.175 451.937 539.982 494.094 539.982 494.094C539.982 494.094 537.866 497.54 531.216 496.711C531.216 496.711 508.036 443.801 506.406 440.354C504.427 436.864 503.734 432.791 504.447 428.843C505.176 423.294 513.027 362.562 513.027 362.562L546.474 358.673Z" fill="black"/>
<path d="M550.822 326.04L521.364 321.278C520.763 321.149 519.791 320.906 518.504 320.577C518.504 320.577 517.245 339.053 509.681 343.286C509.866 344.172 510.024 345.159 510.167 346.289C510.61 349.835 513.027 362.505 513.027 362.505C513.027 362.505 524.467 368.039 533.862 365.365C543.257 362.691 546.432 358.701 546.432 358.701L541.727 351.036C543.042 347.847 548.963 335.035 550.822 326.04Z" fill="black"/>
<path opacity="0.7" d="M550.822 326.04L521.364 321.278C520.763 321.149 519.791 320.906 518.504 320.577C518.504 320.577 517.245 339.053 509.681 343.286C509.866 344.172 510.024 345.159 510.167 346.289C510.61 349.835 513.027 362.505 513.027 362.505C513.027 362.505 524.467 368.039 533.862 365.365C543.257 362.691 546.432 358.701 546.432 358.701L541.727 351.036C543.042 347.847 548.963 335.035 550.822 326.04Z" fill="white"/>
<path d="M543.057 347.991C539.145 350.34 535.046 352.363 530.802 354.039C534.654 353.963 538.425 352.92 541.77 351.008L543.057 347.991Z" fill="black"/>
<path d="M519.333 284.055C519.333 284.055 517.903 293.35 521.278 298.813C521.278 298.813 522.536 295.109 525.668 295.81C528.8 296.51 528.971 300.643 526.769 302.96C526.209 303.61 525.478 304.088 524.658 304.341C523.839 304.594 522.964 304.611 522.136 304.39C522.136 304.39 521.635 311.111 521.364 316.745C521.092 322.379 519.605 334.663 525.94 339.625C532.275 344.587 548.176 346.332 555.626 335.921C559.773 330.13 554.268 319.891 551.708 308.408C549.349 297.855 548.019 282.21 536.822 279.694C525.625 277.177 519.333 284.055 519.333 284.055Z" fill="#37474F"/>
<path d="M560.417 157.057L558.057 158.487C558.256 157.647 558.366 156.79 558.386 155.927C558.386 151.137 555.026 149.206 550.879 151.637C549.617 152.398 548.491 153.365 547.547 154.497C547.547 148.062 543.028 145.445 537.451 148.663C534.512 150.579 532.067 153.162 530.313 156.2C528.558 159.239 527.545 162.648 527.355 166.152C527.355 166.481 527.355 166.795 527.355 167.11C525.919 166.929 524.465 167.263 523.251 168.054C521.066 169.477 519.248 171.397 517.943 173.655C516.639 175.914 515.885 178.448 515.744 181.052C515.743 181.658 515.805 182.262 515.93 182.854L514.671 183.583C511.254 185.557 508.479 189.403 508.479 192.163C508.479 194.923 511.254 195.581 514.671 193.593L560.431 167.21C563.849 165.236 566.623 161.39 566.623 158.63C566.623 155.87 563.835 155.069 560.417 157.057Z" fill="#EBEBEB"/>
</svg>
