<svg width="715" height="715" viewBox="0 0 715 715" fill="none" xmlns="http://www.w3.org/2000/svg">
<path d="M357.5 611.411C510.628 611.411 634.763 604.163 634.763 595.223C634.763 586.283 510.628 579.036 357.5 579.036C204.372 579.036 80.2373 586.283 80.2373 595.223C80.2373 604.163 204.372 611.411 357.5 611.411Z" fill="#F5F5F5"/>
<path d="M186.272 168.354C186.272 168.354 177.177 166.323 175.89 154.597C174.703 143.715 179.551 141.556 179.551 141.556C179.551 141.556 173.359 130.43 183.698 124.038C194.037 117.646 209.867 126.169 215.959 123.28C222.05 120.392 228.829 122.008 226.898 130.588C224.968 139.168 215.93 141.398 215.93 141.398L195.066 137.738C195.066 137.738 204.061 161.19 198.727 165.608C193.393 170.027 186.272 168.354 186.272 168.354Z" fill="black"/>
<path d="M222.622 133.791C222.622 133.791 227.127 151.294 222.622 154.311C218.118 157.329 217.146 136.379 217.146 136.379L222.622 133.791Z" fill="black"/>
<path d="M189.432 303.317L184.956 312.898L177.02 311.754C169.541 312.955 166.423 308.708 166.423 308.708L161.719 304.418C135.421 279.794 130.988 267.238 133.247 257.328C135.635 246.861 151.48 216.073 156.256 208.909C161.032 201.744 164.636 199.785 164.636 199.785C173.302 196.053 179.865 198.741 182.883 208.008C185.328 215.501 179.78 223.323 175.504 228.972C170.244 235.886 165.384 243.096 160.946 250.565C159.516 253.024 158.086 255.527 156.742 258.043C156.156 259.13 152.924 263.849 153.282 264.807C155.484 270.942 166.552 288.359 170.442 294.394L171.786 296.482C186.143 298.541 189.432 303.317 189.432 303.317Z" fill="black"/>
<path d="M338.81 202.131L330.473 206.892C330.473 206.892 328.671 210.439 325.697 215.401C318.933 226.712 306.135 245.431 294.823 246.689C279.966 247.933 264.35 241.055 248.663 230.53C232.976 220.006 238.51 195.924 238.51 195.924C238.51 195.924 247.876 198.556 262.377 209.281C276.877 220.006 289.175 226.555 292.75 227.942C292.75 227.942 305.048 223.981 318.361 208.508L322.136 196.382L334.649 192.092L338.81 202.131Z" fill="black"/>
<path d="M164.107 236.608C164.65 237.38 178.75 306.592 178.75 306.592H244.616C244.616 306.592 245.202 264.278 246.289 254.24C247.376 244.201 254.039 202.76 238.51 195.924C238.51 195.924 222.694 192.163 211.025 192.006C204 191.911 196.983 192.51 190.076 193.794C190.076 193.794 169.87 194.866 164.622 199.757C159.373 204.647 164.107 236.608 164.107 236.608Z" fill="black"/>
<path d="M244.616 305.663C244.616 305.663 243.5 405.491 240.512 429.372C237.523 453.253 229.772 556.456 229.772 556.456L210.21 551.751C210.21 551.751 208.78 476.633 206.735 439.325C204.69 402.016 205.148 357.815 205.148 357.815C205.148 357.815 190.848 450.765 185.342 459.716C179.837 468.668 157.443 520.406 143 546.26L127.07 532.332C127.07 532.332 153.01 449.764 157.443 435.835C161.876 421.907 165.737 318.575 178.75 306.592L244.616 305.663Z" fill="white"/>
<path d="M140.583 543.228L136.608 549.306L131.246 557.514L120.292 551.823L124.782 542.756L128.128 536.036L140.583 543.228Z" fill="#CE7A63"/>
<path d="M338.81 202.131L330.473 206.892C330.473 206.892 328.671 210.439 325.697 215.401L318.361 208.508L322.136 196.382L334.649 192.092L338.81 202.131Z" fill="#CE7A63"/>
<path opacity="0.3" d="M244.602 305.663C244.602 305.663 243.5 405.491 240.512 429.358C237.523 453.224 229.772 556.456 229.772 556.456L210.453 553.21C210.453 553.21 208.666 476.633 206.692 439.31C206.135 428.671 205.148 420.577 204.933 414.357C204.719 408.136 204.762 397.197 204.933 386.486C205.119 370.985 205.462 355.913 205.462 355.913L205.033 358.658C205.033 359.059 204.905 359.502 204.819 359.974L204.733 360.546C201.687 379.794 190.076 451.909 185.357 459.659C179.823 468.668 157.443 520.406 143 546.26L127.07 532.332C127.07 532.332 152.953 449.749 157.429 435.835C161.905 421.922 165.723 318.575 178.736 306.578L244.602 305.663Z" fill="black"/>
<path opacity="0.2" d="M204.976 358.644C204.976 359.044 204.848 359.488 204.762 359.96L204.976 358.644Z" fill="black"/>
<path opacity="0.2" d="M208.108 338.61C208.108 338.61 207.736 367.21 204.876 386.472C205.062 370.971 205.405 355.898 205.405 355.898L208.108 338.61Z" fill="black"/>
<path d="M213.756 189.275C215.674 190.771 217.857 191.892 220.191 192.578C220.191 192.578 216.859 196.582 206.177 195.796C202.016 195.481 196.725 197.755 190.09 193.794C190.09 193.794 192.864 177.949 191.649 168.568C191.649 168.568 180.68 163.864 183.297 156.728C185.671 150.236 193.064 157.686 194.408 159.102C193.093 157.429 185.199 146.89 190.948 138.267C192.788 135.514 195.212 133.199 198.046 131.487C200.881 129.774 204.057 128.706 207.35 128.357L216.416 130.788L220.063 139.368C220.063 139.368 224.939 145.974 225.282 159.202C225.625 172.429 217.975 177.12 212.412 178.693C212.412 178.693 212.255 180.123 212.255 182.053C212.183 184.642 212.426 188.059 213.756 189.275Z" fill="#CE7A63"/>
<path d="M216.631 160.246L215.201 149.564L221.221 157.972C220.651 158.644 219.95 159.192 219.161 159.583C218.371 159.974 217.51 160.2 216.631 160.246Z" fill="#BA4D3C"/>
<path d="M206.177 160.918C207.013 162.001 208.148 162.816 209.442 163.261C210.735 163.706 212.131 163.761 213.456 163.42" stroke="black" stroke-linecap="round" stroke-linejoin="round"/>
<path d="M203.446 146.146C203.446 146.146 205.162 142.399 208.68 142.971" stroke="black" stroke-linecap="round" stroke-linejoin="round"/>
<path d="M218.905 141.57C219.952 141.433 221.017 141.547 222.011 141.903C223.006 142.258 223.901 142.845 224.625 143.615" stroke="black" stroke-linecap="round" stroke-linejoin="round"/>
<path d="M209.853 151.008C209.853 152.052 209.323 152.896 208.68 152.896C208.036 152.896 207.507 152.052 207.507 151.008C207.507 149.964 208.036 149.135 208.68 149.135C209.323 149.135 209.853 149.978 209.853 151.008Z" fill="black"/>
<path d="M221.75 150.236C221.75 151.265 221.221 152.109 220.578 152.109C219.934 152.109 219.405 151.265 219.405 150.236C219.405 149.206 219.934 148.348 220.578 148.348C221.221 148.348 221.75 149.192 221.75 150.236Z" fill="black"/>
<path d="M201.945 200.658L211.125 199.256L213.37 208.137L209.095 216.087H206.635L201.945 208.952V200.658Z" fill="white"/>
<path d="M206.635 216.087L201.945 258.043L210.525 266.309L216.716 257.858L209.095 216.087H206.635Z" fill="white"/>
<path opacity="0.3" d="M201.945 200.658L211.125 199.256L213.37 208.137L209.095 216.087H206.635L201.945 208.952V200.658Z" fill="black"/>
<path opacity="0.3" d="M206.635 216.087L201.945 258.043L210.525 266.309L216.716 257.858L209.095 216.087H206.635Z" fill="black"/>
<path d="M206.177 195.796L210.825 208.036C210.825 208.036 222.837 202.045 224.596 192.006L216.016 189.06C213.031 191.708 209.725 193.97 206.177 195.796Z" fill="white"/>
<path d="M190.905 188.259C190.905 188.259 199.213 192.635 206.177 195.796L203.446 208.036C203.446 208.036 189.689 199.8 185.071 193.365L190.905 188.259Z" fill="white"/>
<path opacity="0.2" d="M212.355 178.65C212.355 178.65 212.198 180.08 212.198 182.01C209.833 181.427 207.551 180.548 205.405 179.393C207.748 179.711 210.133 179.456 212.355 178.65Z" fill="black"/>
<path d="M194.48 159.102C196.035 152.902 195.482 146.362 192.907 140.512C192.907 140.512 209.223 145.188 209.266 130.33C209.266 130.33 187.502 133.805 186.386 141.541C185.271 149.278 192.621 157 194.48 159.102Z" fill="black"/>
<path d="M209.023 132.518C209.023 132.518 215.258 141.37 220.606 139.539V126.669H202.016L192.192 132.532L198.999 139.539L204.061 135.378L209.023 132.518Z" fill="black"/>
<path d="M228.471 572.543L214.514 571.828L214.171 561.246L213.914 553.524L225.211 552.395L227.442 552.495L227.928 562.047L228.471 572.543Z" fill="#CE7A63"/>
<path opacity="0.2" d="M227.928 562.047L214.171 561.246L213.914 553.524L225.211 552.395L227.442 552.495L227.928 562.047Z" fill="black"/>
<path d="M206.335 558.601L233.176 557.943L234.692 549.191H206.964L206.335 558.601Z" fill="black"/>
<path d="M231.474 573.13C231.474 573.13 236.15 559.344 239.797 560.717C243.443 562.09 231.474 573.13 231.474 573.13Z" stroke="white" stroke-miterlimit="10"/>
<path d="M232.275 573.13C232.275 573.13 239.339 566.409 242.185 569.026C245.031 571.643 232.275 573.13 232.275 573.13Z" stroke="white" stroke-miterlimit="10"/>
<path opacity="0.2" d="M140.583 543.228L136.608 549.306L124.782 542.756L128.128 536.036L140.583 543.228Z" fill="black"/>
<path d="M122.151 537.737L142.657 548.591L147.49 542.642L126.598 530.902L122.151 537.737Z" fill="black"/>
<path d="M135.207 561.161C135.207 561.161 141.012 553.896 143.372 555.612C145.731 557.328 135.207 561.161 135.207 561.161Z" stroke="white" stroke-miterlimit="10"/>
<path d="M136.265 561.161C136.265 561.161 146.275 558.801 146.704 562.047C147.133 565.293 136.265 561.161 136.265 561.161Z" stroke="white" stroke-miterlimit="10"/>
<path d="M133.991 553.41L123.223 547.361C122.471 546.944 121.585 546.841 120.758 547.074C119.93 547.307 119.228 547.857 118.804 548.605L113.957 557.185C113.535 557.938 113.429 558.828 113.663 559.659C113.896 560.49 114.449 561.194 115.201 561.618L145.76 578.778C146.513 579.2 147.403 579.306 148.234 579.072C149.065 578.839 149.769 578.286 150.193 577.534C150.569 576.862 150.695 576.078 150.549 575.321C150.402 574.565 149.992 573.885 149.392 573.401C145.445 570.241 137.352 562.977 135.564 555.455C135.456 555.024 135.261 554.62 134.99 554.269C134.72 553.917 134.38 553.625 133.991 553.41Z" fill="black"/>
<path d="M227.184 567.181H212.884C211.885 567.185 210.929 567.584 210.224 568.292C209.519 568.999 209.123 569.957 209.123 570.956V582.396C209.123 583.394 209.52 584.35 210.225 585.055C210.93 585.761 211.887 586.157 212.884 586.157H253.439C253.934 586.159 254.425 586.063 254.883 585.875C255.341 585.687 255.757 585.41 256.108 585.061C256.458 584.711 256.737 584.296 256.927 583.839C257.116 583.381 257.214 582.891 257.214 582.396C257.213 581.505 256.897 580.642 256.321 579.962C255.745 579.281 254.947 578.827 254.068 578.678C248.277 577.72 236.007 574.974 229.93 568.411C229.58 568.029 229.156 567.723 228.684 567.512C228.212 567.3 227.702 567.188 227.184 567.181Z" fill="black"/>
<path d="M189.432 303.317L184.956 312.898L177.02 311.754C169.541 312.956 166.423 308.708 166.423 308.708L161.719 304.418L170.456 294.408L171.8 296.496C186.143 298.541 189.432 303.317 189.432 303.317Z" fill="#CE7A63"/>
<path d="M318.361 207.879L315.587 211.568L323.709 218.661L326.097 215.401L318.361 207.879Z" fill="white"/>
<path d="M161.361 304.819L170.728 293.865L167.567 289.847L157.786 301.616L161.361 304.819Z" fill="white"/>
<path d="M341.184 139.783C340.217 142.656 339.903 145.709 340.264 148.72C340.625 151.73 341.653 154.622 343.272 157.186C348.82 165.594 347.562 137.795 347.562 137.795L341.184 139.783Z" fill="black"/>
<path d="M352.552 202.831C352.552 202.831 318.232 250.879 311.526 248.863C304.819 246.847 289.361 216.874 289.361 216.874L288.46 205.019L278.335 191.077L265.465 201.23L271.7 212.827C271.7 212.827 273.559 218.847 279.05 220.535C279.05 220.535 291.677 259.302 307.65 266.581C323.623 273.859 345.788 227.67 345.788 227.67L352.552 202.831Z" fill="#FFB573"/>
<path d="M426.026 552.967L408.308 559.702C385.428 509.452 366.838 362.905 366.838 362.905C366.838 362.905 366.295 367.009 365.48 373.616C362.82 395.495 357.186 444.673 358.33 462.276C360.146 491.891 354.912 565.079 354.912 565.079L333.462 567.624C333.462 567.624 334.191 495.281 331.131 455.198C328.071 415.115 337.437 312.269 337.437 312.269L396.596 309.552C406.749 321.221 409.28 464.836 411.826 478.035C414.371 491.234 426.026 552.967 426.026 552.967Z" fill="black"/>
<path d="M331.603 209.996C331.747 209.209 332.048 208.459 332.487 207.791C332.927 207.122 333.497 206.549 334.163 206.106C338.953 202.903 351.237 194.923 354.54 194.666C358.687 194.337 380.366 189.246 388.96 194.666C397.554 200.086 402.988 216.016 402.988 216.016C402.988 216.016 402.359 289.647 398.527 313.556L337.337 312.283C337.337 312.283 327.713 231.574 331.603 209.996Z" fill="white"/>
<path d="M400.128 236.736L409.681 254.268C409.681 254.268 410.953 293.793 407.779 303.989L402.988 313.556V328.9L414.428 330.487L417.617 318.375C417.617 318.375 419.519 309.452 417.617 305.634C417.617 305.634 431.002 275.032 426.197 248.577C426.197 248.577 402.045 195.324 387.23 193.851C372.415 192.378 400.128 236.736 400.128 236.736Z" fill="#FFB573"/>
<path d="M380.623 193.922C380.623 193.922 371.171 203.046 362.548 202.788C353.925 202.531 356.285 195.181 356.285 195.181C360.718 194.351 362.162 189.918 362.577 186.114C362.781 184.213 362.781 182.296 362.577 180.395C362.577 180.395 352.295 180.395 346.518 167.839C340.741 155.284 346.518 138.739 346.518 138.739C346.518 138.739 368.354 133.219 378.135 135.979C387.916 138.739 380.151 163.32 380.151 163.32C377.606 177.12 380.623 193.922 380.623 193.922Z" fill="#FFB573"/>
<path d="M361.461 151.823C361.461 152.81 360.918 153.611 360.26 153.611C359.602 153.611 359.073 152.81 359.073 151.823C359.073 150.836 359.602 150.036 360.26 150.036C360.918 150.036 361.461 150.836 361.461 151.823Z" fill="black"/>
<path d="M349.278 153.01C349.278 153.997 348.749 154.798 348.091 154.798C347.433 154.798 346.89 153.997 346.89 153.01C346.89 152.023 347.433 151.222 348.091 151.222C348.749 151.222 349.278 151.98 349.278 153.01Z" fill="black"/>
<path d="M353.31 153.868V163.463C352.522 163.708 351.679 163.714 350.887 163.48C350.096 163.246 349.391 162.782 348.863 162.148L353.31 153.868Z" fill="#ED893E"/>
<path d="M357.386 165.136C357.386 165.136 362.477 165.136 364.336 160.947" stroke="black" stroke-linecap="round" stroke-linejoin="round"/>
<path d="M359.073 144.931C359.073 144.931 363.506 144.573 364.793 147.333" stroke="black" stroke-linecap="round" stroke-linejoin="round"/>
<path d="M343.929 148.305C344.279 147.434 344.844 146.665 345.572 146.073C346.3 145.48 347.167 145.082 348.091 144.916" stroke="black" stroke-linecap="round" stroke-linejoin="round"/>
<path opacity="0.2" d="M370.37 178.864C368.354 181.834 365.695 184.312 362.591 186.114C362.795 184.213 362.795 182.296 362.591 180.395C365.259 180.399 367.902 179.88 370.37 178.864Z" fill="black"/>
<path d="M360.003 203.089L365.193 202.602L366.652 213.442L363.949 218.404H360.861L357.972 213.027L360.003 203.089Z" fill="black"/>
<path d="M379.994 189.561C374.821 194.758 368.949 199.21 362.548 202.788L365.637 210.453C365.637 210.453 378.593 208.222 384.141 192.85L379.994 189.561Z" fill="white"/>
<path d="M362.548 202.788L359.073 210.453C359.073 210.453 353.811 205.262 352.552 195.238L359.073 191.077C359.073 191.077 359.316 198.584 362.548 202.788Z" fill="white"/>
<path d="M361.089 215.544L357.557 261.375L363.492 268.583L368.969 260.932L363.621 215.544H361.089Z" fill="black"/>
<path d="M384.556 156.442C384.556 156.442 372.029 157.958 369.955 139.811C369.955 139.811 347.89 146.403 339.925 139.64C331.96 132.876 338.424 124.081 338.424 124.081C339.107 125.792 339.925 127.447 340.869 129.029V123.309C342.209 125.068 343.686 126.718 345.288 128.242C351.714 129.277 358.299 128.005 363.878 124.653C373.445 118.933 385.614 129.787 383.369 138.152C383.44 138.195 394.222 146.604 384.556 156.442Z" fill="black"/>
<path d="M375.961 156.957C375.961 156.957 379.336 144.988 384.885 149.206C390.433 153.425 382.525 165.208 378.664 164.536C374.803 163.864 375.961 156.957 375.961 156.957Z" fill="#FFB573"/>
<path d="M278.664 223.08L290.734 216.416C290.734 216.416 303.704 241.47 311.225 244.616C311.225 244.616 326.512 229.186 331.546 209.867L338.395 242.07C338.395 242.07 326.541 267.11 311.554 267.467C296.568 267.825 284.284 239.31 278.664 223.08Z" fill="white"/>
<path d="M391.548 226.769L409.738 255.97L406.706 301.201L420.392 303.875C420.392 303.875 430.931 272.415 426.255 248.606C422.865 231.317 412.155 209.395 399.728 198.913C395.311 195.292 389.846 193.191 384.141 192.921C384.141 192.921 380.781 200.672 380.952 207.221C381.124 213.771 391.548 226.769 391.548 226.769Z" fill="white"/>
<path opacity="0.2" d="M402.502 244.33L391.548 226.769C392.492 228.285 402.502 258.63 402.502 258.63V244.33Z" fill="black"/>
<path opacity="0.2" d="M366.838 362.905C366.838 362.905 366.295 367.009 365.48 373.616L362.62 338.839L366.838 362.905Z" fill="black"/>
<path d="M418.661 574.631L429.758 569.469L426.569 560.76L424.238 554.397L414.686 557.185L412.913 557.986L415.644 565.922L418.661 574.631Z" fill="#FFB573"/>
<path opacity="0.2" d="M415.644 565.922L426.569 560.76L424.238 554.397L414.686 557.185L412.913 557.986L415.644 565.922Z" fill="black"/>
<path d="M416.402 576.09C416.402 576.09 408.079 566.423 405.562 568.725C403.046 571.028 416.402 576.09 416.402 576.09Z" stroke="white" stroke-miterlimit="10"/>
<path d="M415.758 576.29C415.758 576.29 407.807 573.144 406.349 576.204C404.89 579.264 415.758 576.29 415.758 576.29Z" stroke="white" stroke-miterlimit="10"/>
<path d="M417.946 569.855L429.543 565.165C430.353 564.839 431.259 564.847 432.063 565.188C432.867 565.528 433.503 566.173 433.833 566.981L437.58 576.29C437.743 576.691 437.826 577.12 437.823 577.553C437.82 577.985 437.731 578.413 437.562 578.812C437.394 579.21 437.148 579.572 436.839 579.875C436.531 580.179 436.165 580.418 435.764 580.58L402.802 593.893C402.401 594.058 401.971 594.141 401.537 594.138C401.103 594.135 400.674 594.046 400.274 593.876C399.875 593.705 399.514 593.457 399.211 593.146C398.909 592.835 398.671 592.467 398.512 592.063C398.218 591.34 398.19 590.536 398.434 589.795C398.677 589.054 399.177 588.423 399.842 588.016C404.218 585.342 413.313 579.078 416.087 571.757C416.244 571.326 416.491 570.934 416.812 570.606C417.132 570.278 417.519 570.022 417.946 569.855Z" fill="black"/>
<path d="M337.58 585.571L349.807 585.27L350.35 576.004L350.751 569.24L340.884 567.996L338.939 568.025L338.281 576.39L337.58 585.571Z" fill="#FFB573"/>
<path opacity="0.2" d="M338.281 576.39L350.35 576.004L350.751 569.24L340.884 567.996L338.939 568.025L338.281 576.39Z" fill="black"/>
<path d="M334.92 586.014C334.92 586.014 331.145 573.83 327.928 574.946C324.71 576.061 334.92 586.014 334.92 586.014Z" stroke="white" stroke-miterlimit="10"/>
<path d="M334.22 586C334.22 586 328.185 579.936 325.64 582.167C323.094 584.398 334.22 586 334.22 586Z" stroke="white" stroke-miterlimit="10"/>
<path d="M338.824 580.909L351.337 581.238C351.771 581.249 352.198 581.345 352.595 581.522C352.991 581.698 353.349 581.951 353.648 582.266C353.947 582.58 354.181 582.951 354.336 583.356C354.492 583.761 354.566 584.193 354.554 584.627L354.283 594.637C354.272 595.07 354.175 595.497 353.998 595.893C353.822 596.288 353.569 596.645 353.254 596.943C352.939 597.241 352.568 597.473 352.163 597.627C351.758 597.781 351.327 597.853 350.894 597.84L315.358 596.911C314.925 596.9 314.498 596.803 314.102 596.626C313.707 596.45 313.35 596.197 313.052 595.882C312.754 595.567 312.522 595.196 312.368 594.791C312.214 594.386 312.142 593.955 312.155 593.521C312.178 592.739 312.479 591.991 313.002 591.41C313.526 590.828 314.239 590.452 315.015 590.347C320.106 589.632 330.931 587.487 336.393 581.896C336.71 581.575 337.089 581.321 337.507 581.152C337.925 580.982 338.373 580.899 338.824 580.909Z" fill="black"/>
<path d="M407.922 564.678L401.787 553.996L428.485 544.115L430.359 558.272L407.922 564.678Z" fill="white"/>
<path d="M330.487 558.186V572H358.501L359.574 558.186H330.487Z" fill="white"/>
<path d="M480.022 220.535C480.022 220.535 471.9 252.567 463.32 262.491C463.32 262.491 447.747 246.932 443.014 233.39C443.014 233.39 442.571 227.07 438.052 224.367L431.288 215.115L420.005 219.176L422.708 228.199L434.448 234.749C434.448 234.749 449.335 275.804 462.862 275.575C476.39 275.347 482.496 257.3 482.496 257.3L489.932 218.69L480.022 220.535Z" fill="#FF8B7B"/>
<path d="M434.72 238.596L443.071 233.39C443.071 233.39 457.285 256.614 463.935 261.275C463.935 261.275 472.215 246.175 475.046 233.748C476.531 226.986 478.359 220.304 480.523 213.728L489.989 227.442C489.989 227.442 483.769 271.114 470.899 275.547C458.029 279.98 450.75 267.41 447.819 262.462C444.887 257.514 434.72 238.596 434.72 238.596Z" fill="black"/>
<path d="M506.292 552.967C506.292 553.496 514.872 565.622 514.872 565.622L523.852 554.011L514.171 540.297L506.292 552.967Z" fill="#FF8B7B"/>
<path d="M510.825 560.989L520.12 550.907C520.773 550.204 521.679 549.789 522.638 549.751C523.597 549.713 524.533 550.057 525.239 550.707L533.304 558.172C533.654 558.493 533.936 558.881 534.135 559.311C534.335 559.742 534.447 560.208 534.465 560.683C534.484 561.157 534.409 561.631 534.244 562.076C534.079 562.521 533.828 562.929 533.504 563.277L507.078 591.877C506.425 592.576 505.523 592.989 504.567 593.026C503.611 593.064 502.679 592.723 501.973 592.077C501.342 591.496 500.939 590.71 500.834 589.858C500.729 589.007 500.93 588.146 501.401 587.43C504.49 582.725 510.553 572.286 509.881 563.72C509.84 563.224 509.903 562.726 510.066 562.255C510.228 561.785 510.487 561.354 510.825 560.989Z" fill="black"/>
<path d="M487.03 547.332L513.113 524.452L522.708 544.372L504.876 559.874L487.03 547.332Z" fill="white"/>
<path d="M477.491 288.074C477.491 288.074 449.363 410.868 448.891 440.326C448.42 469.784 474.117 520.878 490.361 544.801L512.24 527.398L480.537 450.178L495.252 354.025L512.24 548.848L533.233 551.537C533.233 551.537 535.907 477.863 533.233 451.079C530.559 424.295 545.431 333.204 534.42 298.369L477.491 288.074Z" fill="black"/>
<path d="M534.491 298.341C534.491 298.341 539.282 252.667 548.477 234.777L552.052 214.085C552.052 214.085 545.402 205.906 530.33 206.163C515.258 206.42 508.623 204.733 508.623 204.733C508.623 204.733 488.931 203.403 484.313 207.75C479.694 212.098 479.465 231.774 478.693 241.227C477.92 250.679 476.119 294.137 476.119 294.137L534.491 298.341Z" fill="white"/>
<path d="M533.161 204.647C533.161 204.647 510.51 231.174 514.8 298.341L541.284 302.888L537.68 275.032L554.654 224.11C554.654 224.11 558.215 208.251 533.161 204.647Z" fill="black"/>
<path d="M507.335 204.647C507.335 204.647 482.94 222.465 481.066 290.833L468.296 291.191L478.75 236.508C476.915 231.572 476.674 226.186 478.063 221.107C479.493 216.187 481.038 210.41 484.327 207.693C489.56 203.36 497.897 203.732 507.335 204.647Z" fill="black"/>
<path d="M537.222 220.692C537.222 220.692 552.409 257.557 548.662 272.472C548.662 272.472 522.465 265.737 510.381 254.025C510.381 254.025 506.592 247.633 500.371 247.161L488.417 241.027L478.721 251.208L486.3 259.245L502.03 259.945C502.03 259.945 539.21 295.195 553.31 287.845C559.902 284.398 562.734 277.706 563.878 271.557C564.944 265.523 564.612 259.324 562.905 253.439L552.824 217.36L537.222 220.692Z" fill="#FF8B7B"/>
<path d="M501.072 263.463L511.425 251.423C511.425 251.423 534.42 269.155 548.605 272.472C547.368 260.359 545.458 248.323 542.885 236.422L535.735 224.11L536.393 218.933L553.725 216.688C553.725 216.688 569.455 260.66 565.279 276.505C561.103 292.349 552.137 293.922 537.037 288.073C521.936 282.225 501.072 263.463 501.072 263.463Z" fill="black"/>
<path d="M533.519 583.383H519.119L518.289 571.399L517.875 565.408L517.632 561.947L533.505 563.277V571.399L533.519 583.383Z" fill="#FF8B7B"/>
<path d="M518.504 578.02H532.218C533.177 578.02 534.097 578.401 534.776 579.08C535.454 579.758 535.835 580.679 535.835 581.638V592.635C535.832 593.592 535.449 594.508 534.771 595.184C534.093 595.859 533.175 596.239 532.218 596.238H493.264C492.79 596.24 492.32 596.149 491.881 595.968C491.442 595.788 491.043 595.523 490.707 595.188C490.371 594.853 490.104 594.455 489.922 594.017C489.74 593.579 489.646 593.109 489.646 592.635C489.645 591.778 489.947 590.949 490.5 590.294C491.052 589.639 491.819 589.202 492.664 589.06C498.226 588.145 510.01 585.513 515.844 579.193C516.182 578.824 516.593 578.53 517.051 578.328C517.509 578.126 518.004 578.021 518.504 578.02Z" fill="black"/>
<path opacity="0.1" d="M533.161 204.647C530.552 208.098 528.345 211.835 526.583 215.787C521.457 227.102 518.022 239.109 516.387 251.423L533.161 237.838L529.515 226.154L549.921 211.34C549.921 211.34 544.587 205.92 533.161 204.647Z" fill="white"/>
<path opacity="0.1" d="M487.544 242.185C487.544 242.185 495.624 213.37 507.335 204.647C507.335 204.647 493.45 202.717 487.058 205.963L488.488 226.155L482.525 228.028L487.544 242.185Z" fill="white"/>
<path d="M550.207 156.943C552.952 163.821 550.007 171.557 550.278 178.95C550.393 182.325 551.194 185.643 551.279 188.96C551.365 192.278 550.593 195.939 548.119 198.241C545.888 200.343 542.699 200.972 539.696 201.53C535.006 202.374 529.915 203.174 525.711 200.944C524.739 200.429 523.852 199.771 522.851 199.342C520.774 198.633 518.555 198.441 516.387 198.784C514.225 199.133 512.014 199.025 509.895 198.47C503.203 196.139 507.807 186.93 508.951 182.211C510.715 174.984 512.469 167.763 514.214 160.546C521.435 159.116 528.6 157.114 535.835 155.655C538.198 154.982 540.687 154.874 543.1 155.341C545.359 156.027 547.947 157.672 550.207 156.943Z" fill="black"/>
<path d="M550.393 171.157C549.833 173.035 548.627 174.656 546.989 175.733C545.316 176.619 545.059 178.192 545.202 180.023C545.502 184.313 547.833 190.376 539.811 193.808C538.633 194.397 537.31 194.634 536.001 194.489C534.692 194.345 533.453 193.825 532.432 192.993C526.798 188.546 525.01 176.076 525.01 176.076L514.8 146.632C514.833 146.568 514.877 146.511 514.929 146.461L515.015 146.303C515.049 146.245 515.093 146.192 515.143 146.146C515.505 145.642 515.902 145.165 516.33 144.716C516.649 144.345 516.988 143.992 517.345 143.658C521.078 140.197 528.785 135.778 539.839 143.157C551.98 151.28 553.024 164.135 550.393 171.157Z" fill="black"/>
<path d="M550.979 173.645C551.108 177.063 547.962 179.022 545.259 180.094C543.939 180.592 542.574 180.96 541.184 181.195C538.667 185.385 533.219 188.345 533.219 188.345C532.813 189.899 532.569 191.49 532.489 193.093C532.343 196.973 532.588 200.859 533.219 204.69L529.529 210.41C514.157 217.446 508.68 204.69 508.68 204.69C514.314 204.09 516.116 199.356 516.645 195.381C516.862 193.557 516.862 191.714 516.645 189.89C514.147 188.838 511.937 187.207 510.196 185.13C508.455 183.054 507.234 180.592 506.635 177.949C504.819 170.256 506.306 163.02 509.495 155.913C510.777 153.077 512.313 150.363 514.085 147.805L514.8 146.647C514.834 146.583 514.877 146.525 514.929 146.475C514.99 146.364 515.062 146.258 515.143 146.16V146.06C515.401 145.731 515.773 145.259 516.259 144.745H516.345L535.635 142.242L544.015 148.935L546.947 165.523L542.657 170.628L540.869 172.758L540.426 173.273L540.983 172.801C544.387 169.941 548.734 168.511 550.321 171.214C550.732 171.96 550.958 172.794 550.979 173.645Z" fill="#FF8B7B"/>
<path d="M524.925 161.261C524.681 162.276 523.938 162.977 523.28 162.82C522.622 162.662 522.265 161.704 522.508 160.675C522.751 159.645 523.495 158.959 524.167 159.116C524.839 159.273 525.182 160.231 524.925 161.261Z" fill="black"/>
<path d="M513.942 158.301C513.699 159.331 512.955 160.031 512.283 159.874C511.611 159.717 511.268 158.744 511.511 157.729C511.754 156.714 512.498 155.999 513.17 156.156C513.842 156.313 514.185 157.3 513.942 158.301Z" fill="black"/>
<path d="M524.338 159.188L521.693 157.758C521.693 157.758 522.15 160.46 524.338 159.188Z" fill="black"/>
<path d="M513.37 156.313L510.725 154.883C510.725 154.883 511.225 157.6 513.37 156.313Z" fill="black"/>
<path d="M516.631 159.517L514.114 168.568C513.774 168.675 513.416 168.712 513.062 168.677C512.707 168.643 512.364 168.536 512.051 168.366C511.739 168.195 511.464 167.962 511.243 167.683C511.023 167.403 510.861 167.082 510.768 166.738L516.631 159.517Z" fill="#FF5652"/>
<path d="M517.174 174.86C517.174 174.86 523.423 175.79 525.21 170.57" stroke="black" stroke-linecap="round" stroke-linejoin="round"/>
<path d="M525.01 154.168C525.539 153.891 526.119 153.725 526.715 153.68C527.311 153.634 527.909 153.711 528.474 153.905C529.039 154.099 529.558 154.407 530 154.808C530.442 155.21 530.798 155.698 531.045 156.242" stroke="black" stroke-linecap="round" stroke-linejoin="round"/>
<path d="M516.301 150.422C515.83 150.106 515.297 149.895 514.737 149.803C514.177 149.71 513.604 149.737 513.056 149.884C512.508 150.03 511.998 150.291 511.559 150.65C511.119 151.009 510.762 151.458 510.51 151.966" stroke="black" stroke-linecap="round" stroke-linejoin="round"/>
<path d="M548.462 165.751L541.055 172.744H540.94C528.557 168.74 531.045 145.86 531.045 145.86C527.541 148.091 515.129 146.861 514.8 146.604C515.471 145.612 516.243 144.692 517.102 143.858C517.646 143.329 519.376 143.486 520.091 143.429L524.653 143.072L533.891 142.328C534.162 142.328 535.449 141.999 535.678 142.185L544.058 148.877L548.462 165.751Z" fill="black"/>
<path opacity="0.2" d="M522.951 190.862C521.336 192.974 519.116 194.545 516.588 195.367C516.805 193.543 516.805 191.699 516.588 189.875C518.646 190.528 520.792 190.861 522.951 190.862Z" fill="black"/>
<path opacity="0.3" d="M492.163 374.631L493.75 333.805L495.323 353.997L492.163 374.631Z" fill="black"/>
<path opacity="0.1" d="M533.504 564.664V571.399H518.289L517.875 565.408L533.504 564.664Z" fill="black"/>
<path d="M509.18 548.319L512.87 568.983H535.492L538.61 547.332L509.18 548.319Z" fill="white"/>
</svg>
